<svg width="296" height="64" viewBox="0 0 296 64" fill="none" xmlns="http://www.w3.org/2000/svg">
<path d="M96.0395 33.8551V33.1595C96.0395 31.4435 95.4366 30.0986 94.2772 29.1711C93.1178 28.1972 91.6337 27.7334 89.7786 27.7334C88.341 27.7334 87.2279 27.9653 86.3931 28.4754C85.6047 28.9392 84.8627 29.6349 84.1207 30.6088C83.8888 30.887 83.6569 31.0725 83.425 31.2117C83.1931 31.3044 82.8221 31.3508 82.4047 31.3508H80.7815C80.4105 31.3508 80.0395 31.2117 79.7149 30.9334C79.4366 30.6551 79.2975 30.3305 79.3438 29.9131C79.4366 28.8464 79.9931 27.8262 80.9207 26.8059C81.8946 25.7392 83.1467 24.9044 84.7236 24.2088C86.3004 23.5595 87.9699 23.1885 89.7786 23.1885C93.1178 23.1885 95.8076 24.116 97.8482 25.9247C99.9352 27.7798 100.955 30.3305 100.955 33.6233V49.7624C100.955 50.1334 100.816 50.5044 100.538 50.7827C100.26 51.0609 99.8888 51.2001 99.5178 51.2001H97.5236C97.1525 51.2001 96.7815 51.0609 96.5033 50.7827C96.225 50.5044 96.0859 50.1798 96.0859 49.7624V47.5827C95.5294 48.8349 94.2772 49.8551 92.4221 50.5972C90.567 51.3392 88.712 51.7102 86.8569 51.7102C85.0482 51.7102 83.425 51.3856 81.9873 50.7363C80.5496 50.087 79.4366 49.1595 78.6482 48.0465C77.9062 46.9334 77.5352 45.6349 77.5352 44.2435C77.5352 41.6001 78.5554 39.5595 80.5496 38.0754C82.5439 36.545 85.2337 35.5247 88.5728 35.0146L96.0395 33.8551ZM96.0395 38.1218L89.6859 39.1421C87.367 39.5131 85.5583 40.0696 84.2598 40.9044C82.9612 41.6928 82.312 42.6667 82.312 43.8725C82.312 44.7537 82.7294 45.5421 83.5641 46.2378C84.3989 46.9334 85.6511 47.3044 87.3207 47.3044C89.9178 47.3044 92.0047 46.5624 93.5815 45.1247C95.2047 43.687 95.9931 41.7856 95.9931 39.4667V38.1218H96.0395Z" fill="#5C6786"/>
<path d="M113.663 49.8551C113.663 50.2261 113.523 50.5971 113.245 50.8754C112.967 51.1536 112.596 51.2928 112.225 51.2928H110.231C109.86 51.2928 109.489 51.1536 109.21 50.8754C108.932 50.5971 108.793 50.2725 108.793 49.8551V15.1652C108.793 14.7942 108.932 14.4232 109.21 14.1449C109.489 13.8667 109.86 13.7275 110.231 13.7275H112.225C112.596 13.7275 112.967 13.8667 113.245 14.1449C113.523 14.4232 113.663 14.7478 113.663 15.1652V49.8551Z" fill="#5C6786"/>
<path d="M133.002 47.258C136.573 47.258 138.985 45.8667 140.237 43.1305C140.469 42.6204 140.747 42.2494 140.979 42.0175C141.211 41.7856 141.582 41.6928 141.999 41.6928H143.622C143.993 41.6928 144.365 41.832 144.643 42.1102C144.921 42.3421 145.06 42.6667 145.06 42.9914C145.06 44.1972 144.596 45.4957 143.622 46.8407C142.649 48.232 141.257 49.3914 139.449 50.3189C137.64 51.2928 135.46 51.7566 133.002 51.7566C130.451 51.7566 128.272 51.2465 126.417 50.1798C124.562 49.1131 123.124 47.6754 122.104 45.8667C121.083 44.0117 120.527 41.9247 120.434 39.6059C120.388 39.1885 120.388 38.3537 120.388 37.1943C120.388 36.3595 120.388 35.7566 120.434 35.3856C120.759 31.7682 122.011 28.8465 124.144 26.6204C126.278 24.3479 129.246 23.2349 133.002 23.2349C135.46 23.2349 137.593 23.6986 139.402 24.6725C141.211 25.6001 142.602 26.7131 143.53 28.1044C144.504 29.4494 145.014 30.7015 145.107 31.9073C145.153 32.2783 145.014 32.6494 144.689 32.9276C144.411 33.2059 144.04 33.345 143.669 33.345H142.046C141.628 33.345 141.257 33.2523 141.025 33.0204C140.793 32.7885 140.515 32.4175 140.283 31.9073C139.031 29.1711 136.62 27.7798 133.049 27.7798C131.101 27.7798 129.338 28.4291 127.901 29.7276C126.417 31.0262 125.582 33.0204 125.396 35.6638C125.35 36.0349 125.35 36.6841 125.35 37.5653C125.35 38.3537 125.35 38.9566 125.396 39.374C125.628 42.0175 126.509 44.0117 127.901 45.3102C129.338 46.6088 131.054 47.258 133.002 47.258Z" fill="#5C6786"/>
<path d="M176.318 49.8551C176.318 50.2261 176.179 50.5971 175.901 50.8754C175.622 51.1536 175.251 51.2928 174.88 51.2928H172.886C172.515 51.2928 172.144 51.1536 171.866 50.8754C171.588 50.5971 171.448 50.2725 171.448 49.8551V35.8956C171.448 33.2522 170.799 31.258 169.454 29.8667C168.109 28.4754 166.301 27.8261 163.935 27.8261C161.617 27.8261 159.761 28.5217 158.417 29.8667C157.072 31.258 156.422 33.2522 156.422 35.8956V49.8551C156.422 50.2261 156.283 50.5971 156.005 50.8754C155.727 51.1536 155.356 51.2928 154.985 51.2928H152.99C152.619 51.2928 152.248 51.1536 151.97 50.8754C151.692 50.5971 151.553 50.2725 151.553 49.8551V15.1652C151.553 14.7942 151.692 14.4232 151.97 14.1449C152.248 13.8667 152.619 13.7275 152.99 13.7275H154.985C155.356 13.7275 155.727 13.8667 156.005 14.1449C156.283 14.4232 156.422 14.7478 156.422 15.1652V26.8522C157.211 25.8319 158.277 24.9971 159.622 24.3014C161.014 23.6058 162.73 23.2348 164.724 23.2348C166.996 23.2348 168.99 23.6986 170.753 24.6725C172.515 25.6464 173.86 26.9913 174.834 28.8C175.854 30.5623 176.318 32.6493 176.318 35.1073V49.8551Z" fill="#5C6786"/>
<path d="M195.147 23.2349C198.996 23.2349 202.011 24.4407 204.237 26.8522C206.463 29.2638 207.576 32.5102 207.576 36.6378V38.0754C207.576 38.4465 207.437 38.8175 207.158 39.0957C206.88 39.374 206.509 39.5131 206.138 39.5131H187.68V39.8378C187.773 42.1566 188.468 44.0117 189.813 45.3566C191.205 46.6551 193.013 47.3044 195.193 47.3044C197.002 47.3044 198.347 47.0725 199.321 46.6088C200.341 46.145 201.222 45.4957 202.011 44.6609C202.289 44.3827 202.567 44.1972 202.753 44.0581C202.984 43.9653 203.309 43.9189 203.726 43.9189H205.35C205.767 43.9189 206.138 44.0581 206.416 44.3363C206.695 44.6146 206.834 44.9392 206.787 45.3566C206.648 46.3305 206.092 47.3044 205.164 48.3247C204.283 49.2986 202.984 50.1798 201.222 50.8754C199.553 51.5247 197.512 51.8957 195.147 51.8957C192.874 51.8957 190.834 51.3856 189.025 50.3653C187.216 49.2986 185.825 47.8609 184.712 46.0522C183.692 44.1972 183.042 42.1566 182.811 39.8841C182.718 38.8175 182.718 38.0291 182.718 37.4725C182.718 36.916 182.764 36.0812 182.811 35.061C183.042 32.8812 183.645 30.887 184.712 29.1247C185.779 27.3624 187.216 25.9711 188.932 24.9508C190.741 23.745 192.828 23.2349 195.147 23.2349ZM202.706 35.061V34.9218C202.706 32.7885 202.011 31.0725 200.619 29.774C199.274 28.4754 197.419 27.8262 195.147 27.8262C193.06 27.8262 191.297 28.4754 189.813 29.774C188.376 31.0725 187.634 32.7885 187.634 34.9218V35.061H202.706Z" fill="#5C6786"/>
<path d="M218.892 26.8522C219.773 25.7392 220.701 24.9044 221.814 24.2551C222.88 23.6059 224.318 23.2349 226.127 23.2349C230.301 23.2349 233.269 24.7653 234.938 27.8262C235.959 26.3421 237.164 25.2291 238.463 24.4407C239.808 23.6523 241.524 23.2349 243.657 23.2349C247.182 23.2349 249.779 24.2551 251.449 26.3421C253.164 28.4291 254.046 31.3508 254.046 35.1537V49.8088C254.046 50.1798 253.907 50.5508 253.628 50.8291C253.35 51.1073 252.979 51.2465 252.608 51.2465H250.614C250.243 51.2465 249.872 51.1073 249.593 50.8291C249.315 50.5508 249.176 50.2262 249.176 49.8088V35.7102C249.176 30.4233 247.043 27.7798 242.822 27.7798C240.875 27.7798 239.344 28.4291 238.185 29.6812C237.025 30.9334 236.469 32.8349 236.469 35.3392V49.8088C236.469 50.1798 236.33 50.5508 236.051 50.8291C235.773 51.1073 235.402 51.2465 235.031 51.2465H233.037C232.666 51.2465 232.295 51.1073 232.017 50.8291C231.738 50.5508 231.599 50.2262 231.599 49.8088V35.7102C231.599 30.4233 229.466 27.7798 225.246 27.7798C223.298 27.7798 221.767 28.4291 220.608 29.6812C219.449 30.9334 218.892 32.8349 218.892 35.3392V49.8088C218.892 50.1798 218.753 50.5508 218.475 50.8291C218.196 51.1073 217.825 51.2465 217.454 51.2465H215.46C215.089 51.2465 214.718 51.1073 214.44 50.8291C214.162 50.5508 214.022 50.2262 214.022 49.8088V25.1827C214.022 24.8117 214.162 24.4407 214.44 24.1624C214.718 23.8841 215.089 23.745 215.46 23.745H217.454C217.825 23.745 218.196 23.8841 218.475 24.1624C218.753 24.4407 218.892 24.7653 218.892 25.1827V26.8522Z" fill="#5C6786"/>
<path d="M269.071 60.0579C268.747 60.8927 268.237 61.3101 267.495 61.3101H265.315C264.944 61.3101 264.666 61.171 264.387 60.9391C264.156 60.7072 264.016 60.3826 264.016 60.0579C264.016 59.9188 264.016 59.7797 264.063 59.6869L269.211 48.6492L258.59 25.4144C258.544 25.3217 258.544 25.1826 258.544 25.0434C258.544 24.6724 258.683 24.3942 258.915 24.1623C259.147 23.9304 259.472 23.7913 259.843 23.7913H262.022C262.718 23.7913 263.274 24.2087 263.599 25.0434L271.854 43.0376L280.248 25.0434C280.573 24.2087 281.083 23.7913 281.825 23.7913H284.005C284.376 23.7913 284.654 23.9304 284.932 24.1623C285.164 24.3942 285.303 24.7188 285.303 25.0434C285.303 25.1826 285.303 25.3217 285.257 25.4144L269.071 60.0579Z" fill="#5C6786"/>
<path d="M57.1757 33.7624L39.1351 3.1537C39.0424 3.01457 38.9032 2.87544 38.7641 2.78269C38.625 2.68993 38.4395 2.64355 38.254 2.64355C38.0685 2.64355 37.883 2.68993 37.7438 2.78269C37.6047 2.87544 37.4656 3.01457 37.3728 3.1537L31.9931 12.3363C31.8076 12.6146 31.7148 12.9856 31.7148 13.3102C31.7148 13.6349 31.8076 14.0059 31.9931 14.2841L43.7728 34.2725C43.9583 34.5508 44.1902 34.8291 44.5148 35.0146C44.8395 35.2001 45.1641 35.2928 45.5351 35.2928H56.2946C56.4801 35.2928 56.6656 35.2464 56.8047 35.1537C56.9438 35.0609 57.083 34.9218 57.1757 34.7827C57.2685 34.6436 57.3148 34.458 57.3148 34.2725C57.3148 34.087 57.2685 33.9479 57.1757 33.7624Z" fill="#5C6786"/>
<path d="M9.91793 49.7624L27.9585 19.1537C28.0513 19.0146 28.1904 18.8754 28.3295 18.7827C28.4687 18.6899 28.6542 18.6436 28.8397 18.6436C29.0252 18.6436 29.2107 18.6899 29.3498 18.7827C29.4889 18.8754 29.6281 19.0146 29.7208 19.1537L35.1005 28.3363C35.286 28.6146 35.3788 28.9856 35.3788 29.3102C35.3788 29.6349 35.286 30.0059 35.1005 30.2841L23.3208 50.2725C23.1353 50.5508 22.9034 50.8291 22.5788 51.0146C22.2542 51.2001 21.9295 51.2928 21.5585 51.2928H10.7527C10.5672 51.2928 10.3817 51.2464 10.2426 51.1537C10.1034 51.0609 9.96431 50.9218 9.87155 50.7827C9.7788 50.6435 9.73242 50.458 9.73242 50.2725C9.7788 50.087 9.82518 49.9479 9.91793 49.7624Z" fill="#5C6786"/>
<path d="M29.6751 51.2465H65.7562C65.9417 51.2465 66.1273 51.2001 66.2664 51.1074C66.4055 51.0146 66.5447 50.8755 66.6374 50.7364C66.7302 50.5972 66.7765 50.4117 66.7765 50.2262C66.7765 50.0407 66.7302 49.9016 66.6374 49.7161L61.2577 40.5335C61.0722 40.2552 60.8403 39.9769 60.5157 39.7914C60.191 39.6059 59.8664 39.5132 59.4954 39.5132H35.9823C35.6113 39.5132 35.2867 39.6059 34.962 39.7914C34.6374 39.9769 34.4055 40.2088 34.22 40.5335L28.8403 49.7161C28.7476 49.8552 28.7012 50.0407 28.7012 50.2262C28.7012 50.4117 28.7476 50.5509 28.8403 50.7364C28.9331 50.8755 29.0722 51.0146 29.2113 51.1074C29.3505 51.2001 29.536 51.2465 29.6751 51.2465Z" fill="#5C6786"/>
</svg>
