<svg width="209" height="64" viewBox="0 0 209 64" fill="none" xmlns="http://www.w3.org/2000/svg">
<g clip-path="url(#clip0_335_1367)">
<path d="M71.8392 31.5993C71.7788 30.1106 72.0139 28.6247 72.5307 27.2272C73.0476 25.8298 73.836 24.5485 74.8506 23.4574C75.8652 22.3662 77.0857 21.4868 78.4419 20.8697C79.7981 20.2527 81.2631 19.9104 82.7523 19.8624H83.215C88.9706 19.8624 92.3675 23.2481 93.3719 27.2093L89.7944 28.4055C89.473 26.9294 88.6316 25.618 87.4238 24.7106C86.216 23.8032 84.7222 23.3602 83.215 23.4625C79.4908 23.4625 75.7553 26.1823 75.7553 31.667C75.7553 37.1518 79.4005 39.77 83.2601 39.77C84.7749 39.8114 86.2597 39.3435 87.4771 38.4412C88.6944 37.539 89.574 36.2544 89.975 34.7931L93.4848 35.9217C92.8789 38.1508 91.5314 40.1068 89.6644 41.467C87.7974 42.8273 85.5225 43.5105 83.215 43.404C80.2506 43.4583 77.3859 42.3334 75.2507 40.2764C73.1154 38.2195 71.8843 35.3988 71.8279 32.4345C71.8166 32.1636 71.8279 31.8815 71.8392 31.5993Z" fill="#5C6786"/>
<path d="M100.448 42.8849H96.7461V19.7948H100.448V28.8232C100.985 28.1858 101.661 27.6796 102.424 27.3432C103.187 27.0068 104.016 26.8491 104.849 26.8821C108.675 26.8821 110.492 29.6245 110.492 33.044V42.8849H106.926V33.6985C107.032 32.9154 106.827 32.1217 106.354 31.4884C105.882 30.8551 105.179 30.4329 104.398 30.3129C104.176 30.2902 103.953 30.2902 103.732 30.3129C102.876 30.3129 102.055 30.6529 101.45 31.2582C100.844 31.8635 100.504 32.6845 100.504 33.5405C100.499 33.6345 100.499 33.7287 100.504 33.8227L100.448 42.8849Z" fill="#5C6786"/>
<path d="M118.798 33.9919L122.77 33.3712C123.673 33.2583 123.899 32.7956 123.899 32.2426C123.899 30.9335 123.019 29.884 120.965 29.884C120.189 29.8212 119.42 30.0669 118.824 30.5676C118.228 31.0683 117.854 31.7837 117.782 32.5586V32.7279L114.396 31.9718C114.679 29.2858 117.116 26.8933 120.931 26.8933C125.716 26.8933 127.533 29.6018 127.533 32.7618V40.4698C127.529 41.3049 127.593 42.1391 127.725 42.9638H124.339C124.217 42.3092 124.168 41.6431 124.192 40.9776C123.678 41.7685 122.966 42.4108 122.126 42.8405C121.287 43.2702 120.349 43.4723 119.407 43.4265C118.12 43.5328 116.844 43.1243 115.858 42.2907C114.872 41.4571 114.257 40.2665 114.148 38.9801C114.148 38.9011 114.148 38.8221 114.148 38.7544C114.092 35.8991 116.134 34.3643 118.798 33.9919ZM123.921 36.486V35.775L119.87 36.3844C119.32 36.4018 118.798 36.6312 118.413 37.0245C118.028 37.4177 117.81 37.9445 117.805 38.4948C117.809 38.7675 117.868 39.0365 117.977 39.2863C118.086 39.5361 118.244 39.7616 118.442 39.9496C118.639 40.1376 118.872 40.2845 119.127 40.3815C119.382 40.4786 119.654 40.5239 119.926 40.5149H120.096C120.558 40.5632 121.024 40.5197 121.47 40.3868C121.915 40.2539 122.329 40.0343 122.689 39.7406C123.049 39.4469 123.347 39.0849 123.566 38.6754C123.785 38.266 123.921 37.8172 123.966 37.355C123.983 37.0641 123.964 36.7723 123.91 36.486H123.921Z" fill="#5C6786"/>
<path d="M133.83 19.4787C134.148 19.4743 134.464 19.5327 134.759 19.6506C135.055 19.7686 135.324 19.9438 135.552 20.1661C135.779 20.3884 135.961 20.6535 136.085 20.9461C136.21 21.2387 136.276 21.5532 136.279 21.8713C136.279 22.3475 136.138 22.813 135.874 23.2094C135.61 23.6058 135.235 23.9154 134.796 24.0991C134.356 24.2829 133.873 24.3326 133.405 24.2421C132.937 24.1517 132.507 23.925 132.168 23.5906C131.829 23.2562 131.596 22.8291 131.499 22.3628C131.402 21.8966 131.445 21.4121 131.623 20.9703C131.801 20.5284 132.105 20.1489 132.498 19.8795C132.89 19.6101 133.354 19.4629 133.83 19.4562V19.4787ZM132.024 42.9526V27.356H135.726V42.8848L132.024 42.9526Z" fill="#5C6786"/>
<path d="M144.156 42.8848H140.466V27.356H144.066V29.4212C144.535 28.6282 145.209 27.9761 146.018 27.5333C146.826 27.0905 147.738 26.8733 148.659 26.9046C152.451 26.9046 154.302 29.6469 154.302 33.0664V42.8848H150.611V33.6984C150.611 31.7912 149.742 30.2451 147.418 30.2451C146.988 30.248 146.563 30.3356 146.167 30.5028C145.771 30.67 145.412 30.9136 145.11 31.2196C144.808 31.5256 144.57 31.888 144.408 32.2863C144.246 32.6845 144.164 33.1106 144.167 33.5404C144.167 33.6646 144.167 33.7887 144.167 33.9129L144.156 42.8848Z" fill="#5C6786"/>
<path d="M158.771 42.8849V19.7948H162.473V42.8849H158.771Z" fill="#5C6786"/>
<path d="M169.075 19.4788C169.551 19.4766 170.017 19.6159 170.414 19.8792C170.811 20.1425 171.121 20.5178 171.305 20.9575C171.488 21.3972 171.537 21.8814 171.444 22.3488C171.352 22.8161 171.123 23.2455 170.786 23.5823C170.449 23.9192 170.019 24.1483 169.552 24.2407C169.085 24.3331 168.601 24.2846 168.161 24.1012C167.721 23.9179 167.346 23.6081 167.083 23.211C166.819 22.814 166.68 22.3477 166.682 21.8713C166.688 21.2386 166.942 20.6335 167.389 20.186C167.837 19.7386 168.442 19.4847 169.075 19.4788ZM167.258 42.9526V27.3561H170.926V42.8849L167.258 42.9526Z" fill="#5C6786"/>
<path d="M179.412 42.8848H175.71V27.356H179.311V29.4213C179.781 28.629 180.455 27.9776 181.263 27.5349C182.071 27.0922 182.983 26.8745 183.904 26.9046C187.696 26.9046 189.546 29.647 189.546 33.0665V42.8848H185.845V33.6985C185.952 32.9154 185.747 32.1216 185.274 31.4883C184.801 30.855 184.098 30.4328 183.317 30.3128C183.092 30.2902 182.865 30.2902 182.64 30.3128C181.778 30.3217 180.954 30.6705 180.347 31.2833C179.741 31.8961 179.401 32.7234 179.401 33.5856C179.389 33.717 179.389 33.8492 179.401 33.9806L179.412 42.8848Z" fill="#5C6786"/>
<path d="M202.175 33.9129L208.687 42.9413H204.173L199.659 36.5425L197.751 38.5513V42.8849H194.083V19.7948H197.751V33.6308L203.71 27.3561H208.619L202.175 33.9129Z" fill="#5C6786"/>
<path d="M28.0175 13.5426L44.0203 22.729V41.192L28.0626 50.4348L12.0711 41.271V22.8193L28.0175 13.5426ZM28.0175 0L22.149 3.38565L6.16875 12.6623L0.300293 16.048V48.0649L6.16875 51.4505L22.1716 60.6369L28.04 64.0226L33.9085 60.6369L49.8549 51.3828L55.7233 47.9972V15.9351L49.8549 12.5495L33.8633 3.38565L27.9949 0H28.0175Z" fill="#5C6786"/>
</g>
<defs>
<clipPath id="clip0_335_1367">
<rect width="208.387" height="64" fill="white" transform="translate(0.300293)"/>
</clipPath>
</defs>
</svg>
