<svg width="26" height="26" viewBox="0 0 26 26" fill="none" xmlns="http://www.w3.org/2000/svg">
<circle opacity="0.3" cx="13" cy="13" r="13" fill="#C7F5DD"/>
<path d="M13 6C14.8565 6 16.637 6.7375 17.9497 8.05025C19.2625 9.36301 20 11.1435 20 13C20 14.8565 19.2625 16.637 17.9497 17.9497C16.637 19.2625 14.8565 20 13 20C11.1435 20 9.36301 19.2625 8.05025 17.9497C6.7375 16.637 6 14.8565 6 13C6 11.1435 6.7375 9.36301 8.05025 8.05025C9.36301 6.7375 11.1435 6 13 6V6ZM12.128 14.381L10.573 12.825C10.5173 12.7693 10.4511 12.725 10.3782 12.6949C10.3054 12.6647 10.2273 12.6492 10.1485 12.6492C10.0697 12.6492 9.9916 12.6647 9.91876 12.6949C9.84593 12.725 9.77975 12.7693 9.724 12.825C9.61142 12.9376 9.54817 13.0903 9.54817 13.2495C9.54817 13.4087 9.61142 13.5614 9.724 13.674L11.704 15.654C11.7596 15.71 11.8257 15.7545 11.8986 15.7848C11.9714 15.8152 12.0496 15.8308 12.1285 15.8308C12.2074 15.8308 12.2856 15.8152 12.3584 15.7848C12.4313 15.7545 12.4974 15.71 12.553 15.654L16.653 11.553C16.7095 11.4975 16.7544 11.4313 16.7852 11.3584C16.816 11.2854 16.8321 11.207 16.8324 11.1278C16.8328 11.0486 16.8175 10.9702 16.7874 10.8969C16.7573 10.8236 16.7129 10.7571 16.657 10.701C16.601 10.645 16.5345 10.6006 16.4613 10.5704C16.388 10.5402 16.3096 10.5248 16.2304 10.5251C16.1512 10.5253 16.0728 10.5413 15.9998 10.572C15.9268 10.6027 15.8606 10.6476 15.805 10.704L12.128 14.381Z" fill="#2DC573"/>
</svg>
