<svg width="1440" height="1040" viewBox="0 0 1440 1040" fill="none" xmlns="http://www.w3.org/2000/svg">
<g filter="url(#filter0_f_1469_3711)">
<path fill-rule="evenodd" clip-rule="evenodd" d="M96.0505 -121.293C160.492 -145.437 219.152 -233.69 280.417 -202.347C337.6 -173.093 293.959 -79.3309 302.509 -15.6709C309.012 32.7548 338.611 78.8597 324.465 125.628C310.202 172.784 270.609 208.489 227.497 232.331C187.757 254.308 139.482 238.681 96.0505 251.946C23.2745 274.174 -60.416 392.926 -110.369 335.523C-166.45 271.078 -24.0578 179.545 -39.9921 95.6143C-52.4248 30.1268 -192.047 27.0597 -181.424 -38.7455C-171.589 -99.6623 -68.5634 -76.1607 -9.41957 -93.7557C26.2808 -104.376 61.1715 -108.225 96.0505 -121.293Z" fill="url(#paint0_linear_1469_3711)"/>
<path fill-rule="evenodd" clip-rule="evenodd" d="M214.592 515.857C271.26 541.842 303.134 599.038 357.947 628.741C426.848 666.079 533.641 641.716 572.484 709.801C610.206 775.92 552.908 856.062 528.837 928.284C504.984 999.853 490.124 1077.7 433.327 1127.33C373.775 1179.36 292.309 1217.43 214.592 1202.87C139.897 1188.87 103.322 1107.57 48.2627 1055.17C2.42745 1011.54 -46.2396 975.271 -80.4736 922.049C-126.068 851.166 -183.445 781.509 -181.972 697.23C-180.256 599.003 -161.216 472.485 -71.9059 431.639C20.8901 389.198 121.837 473.326 214.592 515.857Z" fill="url(#paint1_linear_1469_3711)"/>
<path fill-rule="evenodd" clip-rule="evenodd" d="M375.879 0.962664C457.3 10.36 530.42 73.2341 566.191 146.989C597.107 210.732 542.796 282.689 546.82 353.422C549.329 397.516 586.379 432.775 584.96 476.918C583.182 532.26 562.926 582.594 537.869 631.968C490.9 724.522 479.56 893.375 375.879 888.913C269.951 884.355 305.125 686.379 223.709 618.45C152.254 558.832 20.9495 615.428 -38.1072 543.506C-98.7416 469.662 -103.648 353.226 -66.2832 265.283C-29.7531 179.303 70.5583 146.967 150.734 99.0383C222.76 55.9817 292.521 -8.65822 375.879 0.962664Z" fill="url(#paint2_linear_1469_3711)"/>
<path fill-rule="evenodd" clip-rule="evenodd" d="M746.454 421.829C838.795 418.781 927.644 319.387 1009.98 361.293C1090.41 402.232 1088.93 518.178 1108.71 606.21C1126.6 685.808 1152.18 770.384 1118.65 844.762C1086.33 916.437 1000.37 939.484 937.282 986.431C873.158 1034.15 826.239 1116.74 746.454 1121.74C665.854 1126.78 602.988 1058.61 537.44 1011.45C471.548 964.05 412.227 913.94 365.427 847.631C299.488 754.205 181.448 660.462 211.937 550.26C242.129 441.132 385.15 404.745 495.278 378.284C579.973 357.934 659.394 424.703 746.454 421.829Z" fill="url(#paint3_linear_1469_3711)"/>
<path fill-rule="evenodd" clip-rule="evenodd" d="M1151.47 -270.854C1238.91 -265.828 1226.34 -110.573 1298.56 -61.0637C1374.67 -8.89623 1503.06 -64.2201 1559.44 8.79862C1614.58 80.2055 1586.87 187.882 1556.31 272.747C1526.38 355.848 1473.27 437.126 1392.37 472.66C1316.69 505.898 1223.42 491.228 1151.47 450.56C1092.46 417.207 1110.92 311.121 1050.88 279.647C970.862 237.693 816.692 344.939 787.19 259.575C757.957 174.988 938.024 163.608 984.304 86.9969C1013.61 38.4782 967.555 -27.3567 991.544 -78.7112C1027.69 -156.094 1066.16 -275.757 1151.47 -270.854Z" fill="url(#paint4_linear_1469_3711)"/>
<path fill-rule="evenodd" clip-rule="evenodd" d="M1255.17 283.495C1377.44 260.953 1501.69 350.908 1570.67 454.303C1631.35 545.253 1593.3 661.203 1579.51 769.647C1568.28 857.987 1568.02 956.928 1499.52 1013.87C1434.07 1068.29 1339.37 1026.77 1255.17 1039.3C1140.27 1056.39 1017.96 1169.39 925.355 1099.29C833.952 1030.11 875.797 881.892 898.907 769.647C916.921 682.153 985.118 624.582 1037.93 552.517C1108.75 455.871 1137.3 305.225 1255.17 283.495Z" fill="url(#paint5_linear_1469_3711)"/>
<path fill-rule="evenodd" clip-rule="evenodd" d="M919.921 -182.415C1019.35 -128.899 1044.51 -9.64875 1086.81 92.8568C1131.33 200.71 1229.18 321.451 1167.61 417.725C1106 514.067 953.559 475.943 836.177 484.758C759.489 490.516 684.62 492.542 614.43 459.263C544.108 425.92 495.379 368.338 453.92 303.516C396.234 213.321 306.255 121.321 334.055 20.8832C363.491 -85.4624 480.539 -139.459 586.732 -176.308C694.554 -213.723 817.419 -237.586 919.921 -182.415Z" fill="url(#paint6_linear_1469_3711)"/>
</g>
<defs>
<filter id="filter0_f_1469_3711" x="-342" y="-431" width="2106" height="1797" filterUnits="userSpaceOnUse" color-interpolation-filters="sRGB">
<feFlood flood-opacity="0" result="BackgroundImageFix"/>
<feBlend mode="normal" in="SourceGraphic" in2="BackgroundImageFix" result="shape"/>
<feGaussianBlur stdDeviation="80" result="effect1_foregroundBlur_1469_3711"/>
</filter>
<linearGradient id="paint0_linear_1469_3711" x1="73.1246" y1="-209" x2="73.1246" y2="351.036" gradientUnits="userSpaceOnUse">
<stop stop-color="#DFB6F3"/>
<stop offset="1" stop-color="#FFF2DF"/>
</linearGradient>
<linearGradient id="paint1_linear_1469_3711" x1="201.5" y1="420" x2="201.5" y2="1206" gradientUnits="userSpaceOnUse">
<stop stop-color="#B6F3E1"/>
<stop offset="1" stop-color="#FFDFF8"/>
</linearGradient>
<linearGradient id="paint2_linear_1469_3711" x1="247.5" y1="0" x2="247.5" y2="889" gradientUnits="userSpaceOnUse">
<stop stop-color="#B6D2F3"/>
<stop offset="1" stop-color="#FFDFDF"/>
</linearGradient>
<linearGradient id="paint3_linear_1469_3711" x1="671" y1="351" x2="671" y2="1122" gradientUnits="userSpaceOnUse">
<stop stop-color="white"/>
<stop offset="1" stop-color="#FBFFDF"/>
</linearGradient>
<linearGradient id="paint4_linear_1469_3711" x1="1187.5" y1="-271" x2="1187.5" y2="491" gradientUnits="userSpaceOnUse">
<stop stop-color="#B6F3E1"/>
<stop offset="1" stop-color="#FFDFF8"/>
</linearGradient>
<linearGradient id="paint5_linear_1469_3711" x1="1236.5" y1="280" x2="1236.5" y2="1122" gradientUnits="userSpaceOnUse">
<stop stop-color="#F3DEB6"/>
<stop offset="1" stop-color="#DFE6FF"/>
</linearGradient>
<linearGradient id="paint6_linear_1469_3711" x1="937.314" y1="-174.482" x2="631.688" y2="467.479" gradientUnits="userSpaceOnUse">
<stop stop-color="#D8F3B6"/>
<stop offset="1" stop-color="#DFE6FF"/>
</linearGradient>
</defs>
</svg>
