<svg width="545" height="544" viewBox="0 0 545 544" fill="none" xmlns="http://www.w3.org/2000/svg">
<path d="M99.4581 486.101L5.00415 24.4578C2.41961 11.8259 12.0709 0 24.9645 0H519.626C532.653 0 542.333 12.056 539.519 24.7747L437.045 487.98C435.665 494.219 431.446 499.428 425.447 501.627C392.411 513.737 274.905 548.438 113.448 501.379C106.324 499.302 100.946 493.371 99.4581 486.101Z" fill="url(#paint0_linear_322_1185)"/>
<ellipse cx="269.896" cy="510.619" rx="222.896" ry="33.2497" fill="url(#paint1_linear_322_1185)"/>
<circle cx="272.5" cy="245.5" r="149.5" fill="#2B86F1"/>
<circle cx="272.5" cy="245.5" r="149.5" fill="url(#paint2_linear_322_1185)" fill-opacity="0.4" style="mix-blend-mode:multiply"/>
<circle cx="272.5" cy="245.5" r="149.5" fill="url(#paint3_linear_322_1185)" fill-opacity="0.4" style="mix-blend-mode:multiply"/>
<circle cx="272.5" cy="245.5" r="137.437" fill="#2B86F1"/>
<circle cx="272.5" cy="245.5" r="137.437" fill="url(#paint4_linear_322_1185)" fill-opacity="0.4" style="mix-blend-mode:multiply"/>
<path d="M320.323 240.378C320.323 240.267 320.302 240.163 320.288 240.052L320.274 239.961C320.267 239.864 320.254 239.767 320.233 239.663C320.198 239.468 320.15 239.281 320.094 239.093C320.073 239.01 320.053 238.927 320.025 238.85C319.942 238.607 319.845 238.371 319.741 238.156L319.623 237.927C319.581 237.836 319.533 237.746 319.484 237.656C319.373 237.447 319.262 237.239 319.159 237.031L319.11 236.933C318.763 236.26 318.403 235.565 317.953 234.822L313.454 227.391C306.918 216.585 300.161 205.417 293.479 194.444C291.933 191.909 290.388 189.298 288.891 186.77C285.453 180.978 281.904 174.984 278.002 169.206C277.967 169.15 277.926 169.102 277.884 169.046C277.801 168.935 277.711 168.824 277.607 168.699C277.51 168.588 277.42 168.477 277.316 168.379C277.212 168.275 277.108 168.178 276.976 168.067C276.858 167.963 276.741 167.865 276.609 167.768C276.484 167.678 276.359 167.602 276.235 167.518C276.096 167.435 275.964 167.352 275.819 167.282C275.701 167.22 275.583 167.171 275.417 167.102C275.278 167.046 275.139 166.99 274.994 166.942L274.786 166.872C274.682 166.845 274.585 166.824 274.536 166.817C274.37 166.775 274.197 166.74 274.03 166.72C273.885 166.699 273.739 166.685 273.601 166.671C273.441 166.657 273.275 166.657 273.102 166.657C272.956 166.657 272.811 166.671 272.651 166.685C272.499 166.699 272.346 166.72 272.208 166.747C272.048 166.775 271.889 166.81 271.778 166.838C271.688 166.852 271.598 166.872 271.514 166.9C271.424 166.928 271.341 166.956 271.258 166.997C271.119 167.046 270.981 167.102 270.842 167.164C270.704 167.227 270.572 167.289 270.44 167.358C270.302 167.435 270.17 167.511 270.045 167.595C269.913 167.678 269.782 167.768 269.657 167.865C269.539 167.956 269.421 168.053 269.31 168.15C269.193 168.261 269.075 168.372 268.971 168.484C268.867 168.595 268.77 168.706 268.673 168.824C268.569 168.956 268.472 169.088 268.402 169.192C268.34 169.268 268.285 169.352 268.229 169.435L226.421 237.885C226.262 238.135 226.123 238.406 225.998 238.711L225.943 238.843C225.846 239.079 225.777 239.316 225.707 239.579L225.686 239.656C225.555 240.239 225.506 240.843 225.562 241.434L227.294 241.33L225.569 241.51C225.569 241.6 225.582 241.691 225.596 241.788C225.853 243.587 226.962 245.184 228.556 246.059C228.861 246.226 229.173 246.392 229.478 246.552C230.004 246.83 230.503 247.094 230.975 247.379L240.366 252.9C246.84 256.706 253.307 260.512 259.794 264.311L270.073 270.311L270.205 270.387C270.295 270.436 270.392 270.485 270.489 270.526L270.565 270.561C270.648 270.603 270.738 270.644 270.828 270.686C270.96 270.742 271.092 270.783 271.286 270.846C271.369 270.874 271.459 270.908 271.549 270.929C271.702 270.971 271.854 270.999 272.048 271.033C272.124 271.047 272.208 271.068 272.291 271.075C272.54 271.11 272.797 271.124 273.039 271.124C273.282 271.124 273.538 271.11 273.795 271.075C273.878 271.061 273.968 271.047 274.058 271.026C274.225 270.999 274.384 270.971 274.543 270.922C274.633 270.894 274.724 270.867 274.876 270.818C275.008 270.776 275.139 270.735 275.278 270.672C275.368 270.637 275.451 270.596 275.534 270.547L275.618 270.505C275.722 270.457 275.833 270.408 275.888 270.367L317.495 245.663C317.537 245.635 317.585 245.608 317.627 245.58C317.765 245.49 317.904 245.392 318.063 245.274C318.112 245.233 318.16 245.198 318.209 245.156C318.355 245.031 318.5 244.906 318.618 244.781L318.909 244.462C319.041 244.309 319.165 244.156 319.276 243.996C319.332 243.92 319.373 243.844 319.45 243.726C319.54 243.58 319.623 243.434 319.706 243.274C319.762 243.17 319.803 243.066 319.845 242.962C319.907 242.809 319.969 242.656 320.018 242.503C320.06 242.385 320.087 242.274 320.122 242.163C320.164 242.003 320.198 241.843 320.226 241.677C320.247 241.566 320.261 241.455 320.274 241.336C320.295 241.177 320.302 241.017 320.309 240.816C320.309 240.732 320.309 240.642 320.309 240.545V240.357L320.323 240.378ZM299.682 227.627C299.121 227.37 298.559 227.12 298.026 226.884C297.79 226.773 297.554 226.669 297.333 226.565L297.243 226.523C297.118 226.46 296.993 226.405 296.882 226.356L278.868 218.231L278.952 192.749L279 192.833C280.49 195.34 282.022 197.93 283.575 200.479C289.209 209.737 294.928 219.175 300.174 227.849L299.682 227.627ZM292.197 236.989C292.252 237.017 292.315 237.044 292.377 237.072L292.585 237.163C292.765 237.239 292.945 237.322 293.139 237.413L293.306 237.489C293.826 237.725 294.352 237.954 294.858 238.183L297.901 239.552C298.102 239.642 298.31 239.739 298.559 239.85L298.899 240.003C299.211 240.142 299.523 240.288 299.904 240.461C300.604 240.774 301.29 241.086 301.976 241.392L278.868 255.115V230.975C278.986 231.03 279.104 231.086 279.229 231.141L292.211 236.996L292.197 236.989ZM267.238 231.002V255.206L265.672 254.289C259.552 250.705 253.438 247.108 247.318 243.51L246.216 242.864L244.019 241.573L267.238 231.002ZM267.335 193.222L267.252 218.237L246.188 227.828L267.335 193.222Z" fill="url(#paint5_linear_322_1185)"/>
<path d="M315.2 256.06C313.537 255.386 311.624 255.532 310.078 256.442L273.08 278.277L235.472 256.095C233.691 255.046 231.466 255.025 229.671 256.039C227.869 257.053 226.732 258.97 226.718 261.039C226.684 264.213 228.181 266.102 228.818 266.915L235.209 275.902C242.93 286.784 250.922 298.035 258.871 309.043C259.71 310.203 260.556 311.439 261.367 312.627L261.408 312.689C263.661 315.981 265.99 319.384 268.928 322.496L269.032 322.607C269.074 322.648 269.116 322.683 269.157 322.725L270.335 321.447L269.233 322.794C269.296 322.857 269.365 322.919 269.434 322.975C269.49 323.023 269.552 323.065 269.608 323.114L270.647 321.725L269.663 323.155C269.739 323.218 269.823 323.273 269.913 323.343C269.975 323.385 270.03 323.419 270.141 323.489C270.238 323.544 270.329 323.607 270.405 323.642C270.474 323.676 270.543 323.711 270.613 323.746L271.347 322.176L270.696 323.787C270.786 323.829 270.869 323.871 270.966 323.905C271.029 323.933 271.098 323.954 271.209 323.996C271.313 324.03 271.424 324.072 271.521 324.1C271.597 324.121 271.673 324.142 271.777 324.169C271.874 324.19 271.971 324.218 272.075 324.239C272.117 324.246 272.158 324.26 272.235 324.267L272.387 324.287C272.664 324.329 272.921 324.343 273.163 324.343C273.441 324.343 273.732 324.322 274.03 324.273L274.154 324.253C274.425 324.204 274.702 324.135 274.952 324.051L275.125 323.996C275.187 323.975 275.256 323.954 275.312 323.926C275.423 323.885 275.527 323.829 275.631 323.78L275.721 323.739C275.818 323.697 275.908 323.648 276.005 323.593C276.185 323.489 276.359 323.378 276.483 323.287C276.553 323.246 276.622 323.197 276.691 323.148C277.024 322.919 277.8 322.371 278.479 321.426C289.063 306.605 303.001 287.076 316.954 267.477L317.009 267.408C317.688 266.568 319.747 264.005 318.617 259.9C318.139 258.171 316.857 256.734 315.193 256.067L315.2 256.06ZM294.331 279.221C288.959 286.75 283.761 294.042 278.93 300.806L278.895 288.326L294.324 279.221H294.331ZM266.461 288.833C266.447 292.438 266.44 296.077 266.44 299.688C261.491 292.82 256.563 285.909 251.802 279.207L266.44 287.84C266.44 288.048 266.44 288.236 266.447 288.417C266.447 288.555 266.447 288.694 266.447 288.833H266.461Z" fill="url(#paint6_linear_322_1185)"/>
<defs>
<linearGradient id="paint0_linear_322_1185" x1="271.863" y1="78.3119" x2="271.863" y2="588.931" gradientUnits="userSpaceOnUse">
<stop offset="0.245442" stop-color="#0958F2" stop-opacity="0"/>
<stop offset="1" stop-color="#1965F7" stop-opacity="0.53"/>
</linearGradient>
<linearGradient id="paint1_linear_322_1185" x1="269.375" y1="487.283" x2="269.375" y2="551.919" gradientUnits="userSpaceOnUse">
<stop stop-color="#0958F2" stop-opacity="0"/>
<stop offset="1" stop-color="#1965F7" stop-opacity="0.67"/>
</linearGradient>
<linearGradient id="paint2_linear_322_1185" x1="272.5" y1="96" x2="272.5" y2="395" gradientUnits="userSpaceOnUse">
<stop stop-color="#4677D7"/>
<stop offset="1" stop-color="#0034B9" stop-opacity="0.62"/>
</linearGradient>
<linearGradient id="paint3_linear_322_1185" x1="272.5" y1="96" x2="272.5" y2="395" gradientUnits="userSpaceOnUse">
<stop stop-color="#123EDA"/>
<stop offset="1" stop-color="white" stop-opacity="0.3"/>
</linearGradient>
<linearGradient id="paint4_linear_322_1185" x1="272.5" y1="108.063" x2="272.5" y2="382.937" gradientUnits="userSpaceOnUse">
<stop stop-color="#123EDA"/>
<stop offset="1" stop-color="white" stop-opacity="0.3"/>
</linearGradient>
<linearGradient id="paint5_linear_322_1185" x1="272.931" y1="166.657" x2="272.931" y2="271.124" gradientUnits="userSpaceOnUse">
<stop stop-color="#4784FA"/>
<stop offset="0.0001" stop-color="#3175FB"/>
<stop offset="1" stop-color="#5AAEFC"/>
</linearGradient>
<linearGradient id="paint6_linear_322_1185" x1="273" y1="336.5" x2="273" y2="271" gradientUnits="userSpaceOnUse">
<stop stop-color="#4784FA"/>
<stop offset="0.0001" stop-color="#3175FB"/>
<stop offset="1" stop-color="#5AAEFC"/>
</linearGradient>
</defs>
</svg>
