<svg width="32" height="32" viewBox="0 0 32 32" fill="none" xmlns="http://www.w3.org/2000/svg">
<path d="M0 8C0 3.58172 3.58172 0 8 0H24C28.4183 0 32 3.58172 32 8V24C32 28.4183 28.4183 32 24 32H8C3.58172 32 0 28.4183 0 24V8Z" fill="url(#paint0_linear_1425_3168)"/>
<path d="M22.1335 15.3072C22.1335 15.2922 22.1307 15.2781 22.1288 15.263L22.127 15.2508C22.126 15.2377 22.1242 15.2245 22.1214 15.2104C22.1167 15.1841 22.1101 15.1587 22.1026 15.1334C22.0998 15.1221 22.097 15.1108 22.0933 15.1005C22.082 15.0676 22.0689 15.0357 22.0549 15.0065L22.039 14.9755C22.0334 14.9633 22.0268 14.9511 22.0203 14.9389C22.0053 14.9107 21.9903 14.8825 21.9763 14.8543L21.9697 14.8412C21.9229 14.75 21.8742 14.6561 21.8134 14.5555L21.2059 13.5502C20.3233 12.0882 19.4107 10.5773 18.5084 9.09278C18.2997 8.74983 18.0909 8.39655 17.8888 8.05454C17.4245 7.27092 16.9453 6.46006 16.4183 5.67832C16.4136 5.67081 16.408 5.66423 16.4024 5.65671C16.3912 5.64168 16.379 5.62665 16.365 5.60973C16.3519 5.5947 16.3397 5.57967 16.3256 5.56651C16.3116 5.55242 16.2976 5.53927 16.2798 5.52423C16.2639 5.51014 16.248 5.49698 16.2302 5.48383C16.2133 5.47162 16.1965 5.46128 16.1796 5.45C16.1609 5.43873 16.1431 5.42745 16.1235 5.41806C16.1076 5.4096 16.0916 5.40303 16.0692 5.39363C16.0505 5.38611 16.0317 5.3786 16.0121 5.37202L15.984 5.36262C15.97 5.35886 15.9569 5.35605 15.9503 5.35511C15.9278 5.34947 15.9044 5.34477 15.882 5.34195C15.8623 5.33913 15.8427 5.33725 15.824 5.33538C15.8024 5.3335 15.78 5.3335 15.7566 5.3335C15.7369 5.3335 15.7172 5.33538 15.6957 5.33725C15.6751 5.33913 15.6545 5.34195 15.6358 5.34571C15.6143 5.34947 15.5928 5.35417 15.5778 5.35793C15.5656 5.3598 15.5534 5.36262 15.5422 5.36638C15.53 5.37014 15.5188 5.3739 15.5076 5.37954C15.4889 5.38611 15.4701 5.39363 15.4514 5.40209C15.4327 5.41054 15.4149 5.419 15.3971 5.42839C15.3784 5.43873 15.3606 5.44907 15.3438 5.46034C15.326 5.47162 15.3082 5.48383 15.2914 5.49698C15.2755 5.5092 15.2595 5.52235 15.2446 5.53551C15.2287 5.55054 15.2127 5.56557 15.1987 5.58061C15.1847 5.59564 15.1716 5.61067 15.1585 5.62665C15.1444 5.6445 15.1313 5.66235 15.122 5.67644C15.1135 5.68678 15.106 5.69806 15.0986 5.70933L9.45261 14.9699C9.43108 15.0037 9.41236 15.0404 9.39551 15.0817L9.38803 15.0995C9.37492 15.1315 9.36556 15.1634 9.3562 15.1991L9.35339 15.2095C9.33561 15.2884 9.32906 15.3701 9.33655 15.45L9.57055 15.4359L9.33748 15.4603C9.33748 15.4726 9.33935 15.4848 9.34123 15.4979C9.37586 15.7413 9.52562 15.9574 9.7409 16.0758C9.78208 16.0983 9.8242 16.1209 9.86539 16.1425C9.93652 16.1801 10.0039 16.2158 10.0676 16.2543L11.3358 17.0013C12.2101 17.5162 13.0833 18.0311 13.9594 18.545L15.3475 19.3568L15.3653 19.3671C15.3775 19.3737 15.3906 19.3803 15.4037 19.3859L15.414 19.3906C15.4252 19.3963 15.4374 19.4019 15.4496 19.4075C15.4673 19.4151 15.4851 19.4207 15.5113 19.4292C15.5226 19.4329 15.5347 19.4376 15.5469 19.4404C15.5675 19.4461 15.5881 19.4498 15.6143 19.4545C15.6246 19.4564 15.6358 19.4592 15.647 19.4602C15.6807 19.4649 15.7154 19.4667 15.7481 19.4667C15.7809 19.4667 15.8155 19.4649 15.8502 19.4602C15.8614 19.4583 15.8736 19.4564 15.8857 19.4536C15.9082 19.4498 15.9297 19.4461 15.9512 19.4395C15.9634 19.4357 15.9756 19.432 15.9962 19.4254C16.014 19.4198 16.0317 19.4141 16.0505 19.4057C16.0626 19.401 16.0739 19.3953 16.0851 19.3888L16.0963 19.3831C16.1104 19.3765 16.1253 19.37 16.1328 19.3643L21.7516 16.0222C21.7572 16.0185 21.7638 16.0147 21.7694 16.0109C21.7881 15.9987 21.8069 15.9856 21.8284 15.9696C21.8349 15.964 21.8415 15.9593 21.848 15.9536C21.8677 15.9367 21.8874 15.9198 21.9033 15.9029L21.9426 15.8597C21.9604 15.839 21.9772 15.8183 21.9922 15.7967C21.9997 15.7864 22.0053 15.7761 22.0156 15.7601C22.0278 15.7403 22.039 15.7206 22.0502 15.699C22.0577 15.6849 22.0633 15.6708 22.0689 15.6567C22.0774 15.6361 22.0858 15.6154 22.0923 15.5947C22.098 15.5787 22.1017 15.5637 22.1064 15.5487C22.112 15.5271 22.1167 15.5055 22.1204 15.4829C22.1232 15.4679 22.1251 15.4528 22.127 15.4369C22.1298 15.4152 22.1307 15.3936 22.1316 15.3664C22.1316 15.3551 22.1316 15.3429 22.1316 15.3297V15.3044L22.1335 15.3072ZM19.3461 13.5821C19.2703 13.5474 19.1945 13.5135 19.1224 13.4816C19.0906 13.4665 19.0588 13.4525 19.0288 13.4384L19.0166 13.4327C18.9998 13.4243 18.9829 13.4168 18.968 13.4102L16.5353 12.3109L16.5465 8.86352L16.5531 8.87479C16.7543 9.21398 16.9612 9.56445 17.1709 9.90928C17.9318 11.1617 18.704 12.4386 19.4126 13.6122L19.3461 13.5821ZM18.3352 14.8487C18.3427 14.8524 18.3511 14.8562 18.3596 14.86L18.3877 14.8722C18.412 14.8825 18.4363 14.8938 18.4625 14.906L18.485 14.9163C18.5552 14.9483 18.6263 14.9793 18.6947 15.0103L19.1056 15.1954C19.1327 15.2076 19.1608 15.2208 19.1945 15.2358L19.2403 15.2565C19.2825 15.2753 19.3246 15.295 19.3761 15.3185C19.4706 15.3608 19.5633 15.403 19.6559 15.4444L16.5353 17.301V14.035C16.5512 14.0425 16.5671 14.05 16.584 14.0575L18.3371 14.8496L18.3352 14.8487ZM14.9647 14.0388V17.3132L14.7532 17.1892C13.9267 16.7044 13.1011 16.2177 12.2746 15.731L12.1258 15.6436L11.8291 15.4688L14.9647 14.0388ZM14.9778 8.92741L14.9666 12.3118L12.1221 13.6094L14.9778 8.92741Z" fill="url(#paint1_linear_1425_3168)"/>
<path d="M22.1335 15.3072C22.1335 15.2922 22.1307 15.2781 22.1288 15.263L22.127 15.2508C22.126 15.2377 22.1242 15.2245 22.1214 15.2104C22.1167 15.1841 22.1101 15.1587 22.1026 15.1334C22.0998 15.1221 22.097 15.1108 22.0933 15.1005C22.082 15.0676 22.0689 15.0357 22.0549 15.0065L22.039 14.9755C22.0334 14.9633 22.0268 14.9511 22.0203 14.9389C22.0053 14.9107 21.9903 14.8825 21.9763 14.8543L21.9697 14.8412C21.9229 14.75 21.8742 14.6561 21.8134 14.5555L21.2059 13.5502C20.3233 12.0882 19.4107 10.5773 18.5084 9.09278C18.2997 8.74983 18.0909 8.39655 17.8888 8.05454C17.4245 7.27092 16.9453 6.46006 16.4183 5.67832C16.4136 5.67081 16.408 5.66423 16.4024 5.65671C16.3912 5.64168 16.379 5.62665 16.365 5.60973C16.3519 5.5947 16.3397 5.57967 16.3256 5.56651C16.3116 5.55242 16.2976 5.53927 16.2798 5.52423C16.2639 5.51014 16.248 5.49698 16.2302 5.48383C16.2133 5.47162 16.1965 5.46128 16.1796 5.45C16.1609 5.43873 16.1431 5.42745 16.1235 5.41806C16.1076 5.4096 16.0916 5.40303 16.0692 5.39363C16.0505 5.38611 16.0317 5.3786 16.0121 5.37202L15.984 5.36262C15.97 5.35886 15.9569 5.35605 15.9503 5.35511C15.9278 5.34947 15.9044 5.34477 15.882 5.34195C15.8623 5.33913 15.8427 5.33725 15.824 5.33538C15.8024 5.3335 15.78 5.3335 15.7566 5.3335C15.7369 5.3335 15.7172 5.33538 15.6957 5.33725C15.6751 5.33913 15.6545 5.34195 15.6358 5.34571C15.6143 5.34947 15.5928 5.35417 15.5778 5.35793C15.5656 5.3598 15.5534 5.36262 15.5422 5.36638C15.53 5.37014 15.5188 5.3739 15.5076 5.37954C15.4889 5.38611 15.4701 5.39363 15.4514 5.40209C15.4327 5.41054 15.4149 5.419 15.3971 5.42839C15.3784 5.43873 15.3606 5.44907 15.3438 5.46034C15.326 5.47162 15.3082 5.48383 15.2914 5.49698C15.2755 5.5092 15.2595 5.52235 15.2446 5.53551C15.2287 5.55054 15.2127 5.56557 15.1987 5.58061C15.1847 5.59564 15.1716 5.61067 15.1585 5.62665C15.1444 5.6445 15.1313 5.66235 15.122 5.67644C15.1135 5.68678 15.106 5.69806 15.0986 5.70933L9.45261 14.9699C9.43108 15.0037 9.41236 15.0404 9.39551 15.0817L9.38803 15.0995C9.37492 15.1315 9.36556 15.1634 9.3562 15.1991L9.35339 15.2095C9.33561 15.2884 9.32906 15.3701 9.33655 15.45L9.57055 15.4359L9.33748 15.4603C9.33748 15.4726 9.33935 15.4848 9.34123 15.4979C9.37586 15.7413 9.52562 15.9574 9.7409 16.0758C9.78208 16.0983 9.8242 16.1209 9.86539 16.1425C9.93652 16.1801 10.0039 16.2158 10.0676 16.2543L11.3358 17.0013C12.2101 17.5162 13.0833 18.0311 13.9594 18.545L15.3475 19.3568L15.3653 19.3671C15.3775 19.3737 15.3906 19.3803 15.4037 19.3859L15.414 19.3906C15.4252 19.3963 15.4374 19.4019 15.4496 19.4075C15.4673 19.4151 15.4851 19.4207 15.5113 19.4292C15.5226 19.4329 15.5347 19.4376 15.5469 19.4404C15.5675 19.4461 15.5881 19.4498 15.6143 19.4545C15.6246 19.4564 15.6358 19.4592 15.647 19.4602C15.6807 19.4649 15.7154 19.4667 15.7481 19.4667C15.7809 19.4667 15.8155 19.4649 15.8502 19.4602C15.8614 19.4583 15.8736 19.4564 15.8857 19.4536C15.9082 19.4498 15.9297 19.4461 15.9512 19.4395C15.9634 19.4357 15.9756 19.432 15.9962 19.4254C16.014 19.4198 16.0317 19.4141 16.0505 19.4057C16.0626 19.401 16.0739 19.3953 16.0851 19.3888L16.0963 19.3831C16.1104 19.3765 16.1253 19.37 16.1328 19.3643L21.7516 16.0222C21.7572 16.0185 21.7638 16.0147 21.7694 16.0109C21.7881 15.9987 21.8069 15.9856 21.8284 15.9696C21.8349 15.964 21.8415 15.9593 21.848 15.9536C21.8677 15.9367 21.8874 15.9198 21.9033 15.9029L21.9426 15.8597C21.9604 15.839 21.9772 15.8183 21.9922 15.7967C21.9997 15.7864 22.0053 15.7761 22.0156 15.7601C22.0278 15.7403 22.039 15.7206 22.0502 15.699C22.0577 15.6849 22.0633 15.6708 22.0689 15.6567C22.0774 15.6361 22.0858 15.6154 22.0923 15.5947C22.098 15.5787 22.1017 15.5637 22.1064 15.5487C22.112 15.5271 22.1167 15.5055 22.1204 15.4829C22.1232 15.4679 22.1251 15.4528 22.127 15.4369C22.1298 15.4152 22.1307 15.3936 22.1316 15.3664C22.1316 15.3551 22.1316 15.3429 22.1316 15.3297V15.3044L22.1335 15.3072ZM19.3461 13.5821C19.2703 13.5474 19.1945 13.5135 19.1224 13.4816C19.0906 13.4665 19.0588 13.4525 19.0288 13.4384L19.0166 13.4327C18.9998 13.4243 18.9829 13.4168 18.968 13.4102L16.5353 12.3109L16.5465 8.86352L16.5531 8.87479C16.7543 9.21398 16.9612 9.56445 17.1709 9.90928C17.9318 11.1617 18.704 12.4386 19.4126 13.6122L19.3461 13.5821ZM18.3352 14.8487C18.3427 14.8524 18.3511 14.8562 18.3596 14.86L18.3877 14.8722C18.412 14.8825 18.4363 14.8938 18.4625 14.906L18.485 14.9163C18.5552 14.9483 18.6263 14.9793 18.6947 15.0103L19.1056 15.1954C19.1327 15.2076 19.1608 15.2208 19.1945 15.2358L19.2403 15.2565C19.2825 15.2753 19.3246 15.295 19.3761 15.3185C19.4706 15.3608 19.5633 15.403 19.6559 15.4444L16.5353 17.301V14.035C16.5512 14.0425 16.5671 14.05 16.584 14.0575L18.3371 14.8496L18.3352 14.8487ZM14.9647 14.0388V17.3132L14.7532 17.1892C13.9267 16.7044 13.1011 16.2177 12.2746 15.731L12.1258 15.6436L11.8291 15.4688L14.9647 14.0388ZM14.9778 8.92741L14.9666 12.3118L12.1221 13.6094L14.9778 8.92741Z" fill="url(#paint2_linear_1425_3168)"/>
<path d="M21.4417 17.4289C21.2171 17.3378 20.9587 17.3575 20.75 17.4806L15.7536 20.4347L10.6749 17.4336C10.4344 17.2918 10.1339 17.2889 9.89149 17.4261C9.64813 17.5633 9.49463 17.8226 9.49276 18.1026C9.48808 18.532 9.69025 18.7876 9.77636 18.8975L10.6394 20.1133C11.6821 21.5857 12.7613 23.1078 13.8349 24.597C13.9481 24.7539 14.0623 24.9212 14.1718 25.0819L14.1774 25.0903C14.4816 25.5357 14.7961 25.9961 15.193 26.417L15.207 26.432C15.2126 26.4377 15.2183 26.4424 15.2239 26.448L15.383 26.2751L15.2342 26.4574C15.2426 26.4659 15.252 26.4743 15.2613 26.4818C15.2688 26.4884 15.2772 26.4941 15.2847 26.5006L15.4251 26.3127L15.2922 26.5063C15.3025 26.5147 15.3137 26.5222 15.3259 26.5316C15.3343 26.5373 15.3418 26.542 15.3568 26.5514C15.3699 26.5589 15.3821 26.5673 15.3924 26.572C15.4017 26.5767 15.4111 26.5814 15.4204 26.5861L15.5197 26.3738L15.4317 26.5918C15.4438 26.5974 15.4551 26.603 15.4682 26.6077C15.4766 26.6115 15.486 26.6143 15.5009 26.62C15.515 26.6247 15.5299 26.6303 15.5431 26.6341C15.5533 26.6369 15.5636 26.6397 15.5777 26.6434C15.5908 26.6463 15.6039 26.65 15.6179 26.6528C15.6235 26.6538 15.6292 26.6557 15.6395 26.6566L15.6601 26.6594C15.6975 26.6651 15.7321 26.6669 15.7649 26.6669C15.8023 26.6669 15.8416 26.6641 15.8819 26.6575L15.8987 26.6547C15.9352 26.6481 15.9727 26.6388 16.0064 26.6275L16.0298 26.62C16.0382 26.6171 16.0476 26.6143 16.055 26.6106C16.07 26.6049 16.0841 26.5974 16.0981 26.5908L16.1103 26.5852C16.1234 26.5796 16.1355 26.573 16.1486 26.5655C16.173 26.5514 16.1964 26.5363 16.2132 26.5241C16.2226 26.5185 16.2319 26.5119 16.2413 26.5053C16.2862 26.4743 16.3911 26.4001 16.4828 26.2723C17.9121 24.2672 19.7944 21.6251 21.6785 18.9736L21.686 18.9642C21.7777 18.8505 22.0557 18.5038 21.9032 17.9485C21.8386 17.7146 21.6654 17.5201 21.4408 17.4299L21.4417 17.4289ZM18.6234 20.5625C17.898 21.581 17.196 22.5675 16.5436 23.4827L16.539 21.7943L18.6225 20.5625H18.6234ZM14.8598 21.8628C14.8579 22.3505 14.857 22.8428 14.857 23.3314C14.1887 22.4022 13.5232 21.4673 12.8801 20.5606L14.857 21.7285C14.857 21.7567 14.857 21.782 14.8579 21.8065C14.8579 21.8253 14.8579 21.844 14.8579 21.8628H14.8598Z" fill="url(#paint3_linear_1425_3168)"/>
<defs>
<linearGradient id="paint0_linear_1425_3168" x1="16" y1="0" x2="16" y2="32" gradientUnits="userSpaceOnUse">
<stop stop-color="#202D4F"/>
<stop offset="1" stop-color="#0E286B" stop-opacity="0.31"/>
</linearGradient>
<linearGradient id="paint1_linear_1425_3168" x1="15.7335" y1="5.3335" x2="15.8126" y2="23.2867" gradientUnits="userSpaceOnUse">
<stop stop-color="#6CB0D7"/>
<stop offset="1" stop-color="#0E4496"/>
</linearGradient>
<linearGradient id="paint2_linear_1425_3168" x1="15.7335" y1="5.3335" x2="15.7335" y2="19.4667" gradientUnits="userSpaceOnUse">
<stop stop-color="#4677D7"/>
<stop offset="1" stop-color="#0034B9" stop-opacity="0.62"/>
</linearGradient>
<linearGradient id="paint3_linear_1425_3168" x1="15.7204" y1="17.3252" x2="15.7204" y2="26.6669" gradientUnits="userSpaceOnUse">
<stop stop-color="#4677D7"/>
<stop offset="1" stop-color="#0034B9" stop-opacity="0.62"/>
</linearGradient>
</defs>
</svg>
