<svg width="26" height="26" viewBox="0 0 26 26" fill="none" xmlns="http://www.w3.org/2000/svg">
<circle opacity="0.3" cx="13" cy="13" r="13" fill="#FFA4A4"/>
<path d="M13.5896 6.68833C13.359 6.25233 12.6416 6.25233 12.411 6.68833L6.41096 18.0217C6.35695 18.1232 6.33018 18.2371 6.33324 18.3521C6.33631 18.4671 6.36912 18.5793 6.42847 18.6779C6.48782 18.7765 6.57168 18.858 6.6719 18.9145C6.77211 18.971 6.88525 19.0006 7.0003 19.0003H19.0003C19.1153 19.0006 19.2283 18.971 19.3285 18.9145C19.4286 18.8581 19.5124 18.7766 19.5717 18.6781C19.631 18.5796 19.6638 18.4674 19.6668 18.3525C19.6698 18.2376 19.643 18.1238 19.589 18.0223L13.5896 6.68833ZM13.667 17.0003H12.3336V15.667H13.667V17.0003ZM12.3336 14.3337V11.0003H13.667L13.6676 14.3337H12.3336Z" fill="#F45858"/>
</svg>
