<svg width="338" height="85" viewBox="0 0 338 85" fill="none" xmlns="http://www.w3.org/2000/svg">
<g clip-path="url(#clip0_1159_2514)">
<path d="M95.8222 48.9813C95.8172 49.2754 95.6961 49.5556 95.4852 49.7606C95.2743 49.9656 94.9908 50.0789 94.6967 50.0755H73.9687C74.5002 55.2028 78.3457 59.8924 83.7856 59.8924C87.506 59.8924 90.2572 58.4855 92.3206 55.5154C92.4167 55.3594 92.5496 55.2293 92.7077 55.1367C92.8658 55.044 93.0442 54.9915 93.2273 54.9839C93.3638 54.9801 93.4997 55.0041 93.6266 55.0546C93.7536 55.105 93.8689 55.1809 93.9654 55.2775C94.062 55.3741 94.1379 55.4894 94.1884 55.6163C94.2388 55.7432 94.2629 55.8791 94.259 56.0157C94.2597 56.2042 94.2054 56.389 94.1027 56.5471C92.008 60.1737 87.8499 61.9558 83.7856 61.9558C76.8137 61.9558 71.8115 55.703 71.8115 49.0438C71.8115 42.3846 76.7825 36.1318 83.7856 36.1318C90.7887 36.1318 95.7909 42.3221 95.8222 48.9813ZM93.6024 48.0121C93.1647 42.8848 89.2255 38.1953 83.7856 38.1953C78.3457 38.1953 74.5002 42.8848 73.9687 48.0121H93.6024Z" fill="#5C6786"/>
<path d="M121.027 36.6289C121.298 36.6367 121.556 36.748 121.748 36.9398C121.94 37.1316 122.051 37.3895 122.059 37.6606C122.063 37.7971 122.039 37.933 121.988 38.06C121.938 38.1869 121.862 38.3022 121.765 38.3988C121.669 38.4954 121.553 38.5712 121.427 38.6217C121.3 38.6722 121.164 38.6962 121.027 38.6923H115.462V60.5457C115.46 60.8186 115.35 61.0796 115.157 61.2726C114.964 61.4655 114.703 61.575 114.43 61.5774C114.159 61.5696 113.901 61.4584 113.71 61.2665C113.518 61.0747 113.407 60.8169 113.399 60.5457V38.6923H108.053C107.916 38.6962 107.78 38.6722 107.653 38.6217C107.526 38.5712 107.411 38.4954 107.314 38.3988C107.218 38.3022 107.142 38.1869 107.092 38.06C107.041 37.933 107.017 37.7971 107.021 37.6606C107.023 37.3877 107.133 37.1267 107.326 36.9338C107.519 36.7408 107.78 36.6313 108.053 36.6289H113.399V28.6566C113.399 28.3924 113.494 28.1371 113.666 27.9365C113.838 27.736 114.076 27.6033 114.337 27.5624C114.483 27.543 114.631 27.5553 114.772 27.5986C114.912 27.6418 115.042 27.7149 115.152 27.8128C115.262 27.9108 115.349 28.0313 115.408 28.1661C115.467 28.301 115.496 28.4469 115.493 28.5941V36.6289H121.027Z" fill="#5C6786"/>
<path d="M154.94 47.1957V60.4204C154.932 60.6915 154.821 60.9494 154.629 61.1412C154.437 61.333 154.179 61.4442 153.908 61.4521C153.772 61.4559 153.636 61.4319 153.509 61.3814C153.382 61.331 153.267 61.2551 153.17 61.1585C153.073 61.0619 152.998 60.9467 152.947 60.8197C152.897 60.6928 152.873 60.5569 152.876 60.4204V47.1957C152.876 42.725 150.344 38.2855 145.373 38.2855C138.995 38.2855 136.244 43.8505 136.619 49.5718C136.619 49.7281 136.682 50.3847 136.682 50.4784V60.3891C136.681 60.6533 136.586 60.9086 136.415 61.1092C136.243 61.3097 136.005 61.4424 135.744 61.4833C135.598 61.5027 135.45 61.4904 135.309 61.4471C135.168 61.4039 135.039 61.3308 134.929 61.2329C134.819 61.1349 134.732 61.0144 134.673 60.8796C134.614 60.7447 134.584 60.5988 134.587 60.4516V16.9636C134.59 16.6907 134.699 16.4297 134.892 16.2368C135.085 16.0438 135.346 15.9343 135.619 15.9319C135.89 15.9397 136.148 16.051 136.34 16.2428C136.531 16.4346 136.643 16.6925 136.65 16.9636V41.537C138.433 38.3481 141.621 36.1909 145.342 36.1909C151.47 36.1909 154.94 41.537 154.94 47.1957Z" fill="#5C6786"/>
<path d="M192.182 48.9813C192.177 49.2754 192.055 49.5556 191.845 49.7606C191.634 49.9656 191.35 50.0789 191.056 50.0755H170.328C170.86 55.2028 174.705 59.8924 180.145 59.8924C183.865 59.8924 186.617 58.4855 188.68 55.5154C188.776 55.3594 188.909 55.2293 189.067 55.1367C189.225 55.044 189.404 54.9915 189.587 54.9839C189.723 54.9801 189.859 55.0041 189.986 55.0546C190.113 55.105 190.228 55.1809 190.325 55.2775C190.421 55.3741 190.497 55.4894 190.548 55.6163C190.598 55.7432 190.622 55.8791 190.618 56.0157C190.619 56.2042 190.565 56.389 190.462 56.5471C188.367 60.1737 184.209 61.9558 180.145 61.9558C173.173 61.9558 168.171 55.703 168.171 49.0438C168.171 42.3846 173.142 36.1318 180.145 36.1318C187.086 36.1318 192.15 42.3221 192.182 48.9813ZM189.931 48.0121C189.493 42.8848 185.554 38.1953 180.114 38.1953C174.674 38.1953 170.828 42.8848 170.297 48.0121H189.931Z" fill="#5C6786"/>
<path d="M217.66 37.5966C217.68 37.8742 217.589 38.1483 217.407 38.3592C217.226 38.5701 216.968 38.7005 216.691 38.7221C210.594 39.6288 207.843 44.5997 207.843 50.3835V60.2942C207.842 60.5583 207.748 60.8137 207.576 61.0142C207.404 61.2148 207.166 61.3475 206.905 61.3884C206.759 61.4078 206.611 61.3954 206.47 61.3522C206.329 61.309 206.2 61.2359 206.09 61.1379C205.98 61.04 205.893 60.9195 205.834 60.7846C205.775 60.6498 205.746 60.5038 205.748 60.3567V37.7529C205.749 37.4888 205.843 37.2335 206.015 37.0329C206.187 36.8323 206.425 36.6996 206.686 36.6587C206.832 36.6393 206.98 36.6517 207.121 36.6949C207.262 36.7381 207.391 36.8112 207.501 36.9092C207.611 37.0071 207.698 37.1276 207.757 37.2625C207.816 37.3973 207.846 37.5433 207.843 37.6904V42.2862C209.562 39.3787 212.97 36.6274 216.534 36.6274C217.066 36.6274 217.66 37.0026 217.66 37.5966Z" fill="#5C6786"/>
<path d="M251.734 48.9813C251.729 49.2754 251.608 49.5556 251.397 49.7606C251.186 49.9656 250.903 50.0789 250.609 50.0755H229.881C230.412 55.2028 234.258 59.8924 239.698 59.8924C243.418 59.8924 246.169 58.4855 248.233 55.5154C248.329 55.3594 248.462 55.2293 248.62 55.1367C248.778 55.044 248.956 54.9915 249.139 54.9839C249.276 54.9801 249.412 55.0041 249.539 55.0546C249.666 55.105 249.781 55.1809 249.878 55.2775C249.974 55.3741 250.05 55.4894 250.1 55.6163C250.151 55.7432 250.175 55.8791 250.171 56.0157C250.172 56.2042 250.118 56.389 250.015 56.5471C247.92 60.1737 243.762 61.9558 239.698 61.9558C232.726 61.9558 227.724 55.703 227.724 49.0438C227.724 42.3846 232.695 36.1318 239.698 36.1318C246.701 36.1318 251.703 42.3221 251.734 48.9813ZM249.515 48.0121C249.077 42.8848 245.138 38.1953 239.698 38.1953C234.258 38.1953 230.412 42.8848 229.881 48.0121H249.515Z" fill="#5C6786"/>
<path d="M285.243 37.8469V60.5444C285.235 60.8156 285.124 61.0734 284.932 61.2652C284.741 61.457 284.483 61.5683 284.212 61.5761C284.075 61.58 283.939 61.556 283.812 61.5055C283.685 61.455 283.57 61.3792 283.473 61.2826C283.377 61.186 283.301 61.0707 283.251 60.9438C283.2 60.8169 283.176 60.681 283.18 60.5444V56.23C281.46 59.6378 278.428 62.1076 274.551 62.1076C268.392 62.1076 264.984 56.7615 264.984 51.1027V37.8156C264.987 37.5427 265.096 37.2817 265.289 37.0888C265.482 36.8958 265.743 36.7863 266.016 36.7839C266.287 36.7917 266.545 36.903 266.737 37.0948C266.929 37.2866 267.04 37.5445 267.048 37.8156V51.1027C267.048 55.5735 269.58 60.0129 274.551 60.0129C281.523 60.0129 283.18 53.4788 283.18 46.2568V37.7843C283.182 37.6171 283.225 37.4528 283.303 37.3053C283.382 37.1577 283.495 37.0312 283.633 36.9363C283.771 36.8414 283.929 36.7809 284.095 36.7598C284.261 36.7387 284.43 36.7577 284.587 36.8151C284.783 36.9065 284.95 37.0522 285.066 37.235C285.182 37.4178 285.244 37.6301 285.243 37.8469Z" fill="#5C6786"/>
<path d="M337.736 47.0978V60.385C337.728 60.6561 337.617 60.914 337.425 61.1058C337.233 61.2976 336.975 61.4088 336.704 61.4167C336.568 61.4206 336.432 61.3965 336.305 61.3461C336.178 61.2956 336.063 61.2197 335.966 61.1232C335.869 61.0266 335.794 60.9113 335.743 60.7844C335.693 60.6574 335.669 60.5215 335.673 60.385V47.0978C335.673 42.6271 333.14 38.2502 328.169 38.2502C321.916 38.2502 319.54 44.9406 319.54 50.1304V60.385C319.533 60.6561 319.421 60.914 319.23 61.1058C319.038 61.2976 318.78 61.4088 318.509 61.4167C318.372 61.4206 318.236 61.3965 318.109 61.3461C317.982 61.2956 317.867 61.2197 317.771 61.1232C317.674 61.0266 317.598 60.9113 317.548 60.7844C317.497 60.6574 317.473 60.5215 317.477 60.385V47.0978C317.477 42.6271 314.945 38.2502 309.974 38.2502C303.658 38.2502 301.063 43.2211 301.282 49.8491C301.282 50.0054 301.345 50.2868 301.282 50.3806V60.3537C301.282 60.6179 301.187 60.8732 301.015 61.0738C300.843 61.2744 300.605 61.407 300.344 61.448C300.199 61.4673 300.05 61.455 299.91 61.4118C299.769 61.3685 299.639 61.2954 299.529 61.1975C299.42 61.0995 299.332 60.979 299.273 60.8442C299.214 60.7094 299.185 60.5634 299.188 60.4162V37.75C299.188 37.4858 299.283 37.2305 299.455 37.0299C299.627 36.8293 299.865 36.6967 300.126 36.6557C300.271 36.6364 300.42 36.6487 300.56 36.6919C300.701 36.7352 300.831 36.8082 300.941 36.9062C301.05 37.0041 301.138 37.1247 301.197 37.2595C301.256 37.3943 301.285 37.5403 301.282 37.6874V41.4704C303.064 38.2814 306.253 36.1868 309.974 36.1868C314.194 36.1868 317.477 38.8755 318.821 42.7834C320.541 38.9067 323.886 36.1868 328.169 36.1868C334.266 36.1868 337.736 41.4704 337.736 47.0978Z" fill="#5C6786"/>
<path opacity="0.6" d="M26.0359 31.5981L0.0869141 43.3846L26.0359 58.7352L52.0162 43.3846L26.0359 31.5981Z" fill="#5C6786"/>
<path opacity="0.45" d="M0.0869141 43.3816L26.0359 58.7322V0.300049L0.0869141 43.3816Z" fill="#5C6786"/>
<path opacity="0.8" d="M26.043 0.300049V58.7322L52.0232 43.3816L26.043 0.300049Z" fill="#5C6786"/>
<path opacity="0.45" d="M0.0869141 48.3281L26.0359 84.9068V63.6474L0.0869141 48.3281Z" fill="#5C6786"/>
<path opacity="0.8" d="M26.043 63.6474V84.9068L52.0232 48.3281L26.043 63.6474Z" fill="#5C6786"/>
</g>
<defs>
<clipPath id="clip0_1159_2514">
<rect width="337.65" height="84.6" fill="white" transform="translate(0.0888672 0.300049)"/>
</clipPath>
</defs>
</svg>
