<svg width="24" height="24" viewBox="0 0 24 24" fill="none" xmlns="http://www.w3.org/2000/svg">
<path d="M8.96641 18.7105C14.256 18.7585 18.576 14.5153 18.624 9.22572V8.59212C19.2672 8.10252 19.8336 7.51692 20.2848 6.84492C19.6704 7.11372 19.0176 7.29612 18.3552 7.40172C19.0368 6.96972 19.5648 6.32652 19.8336 5.56812C19.1616 5.94252 18.4512 6.22092 17.712 6.39372C17.088 5.68332 16.176 5.28012 15.2256 5.28972C13.3536 5.31852 11.8464 6.82572 11.8272 8.68812C11.808 8.93772 11.8272 9.18732 11.9136 9.42732C9.17761 9.29292 6.62401 7.98732 4.92481 5.83692C4.61761 6.37452 4.45441 6.97932 4.46401 7.58412C4.48321 8.70732 5.03041 9.76332 5.93281 10.4353C5.38561 10.4257 4.83841 10.2625 4.36801 9.97452C4.36801 11.5969 5.52961 12.9985 7.12321 13.2865C6.82561 13.3633 6.51841 13.3921 6.20161 13.3729C5.98081 13.3921 5.76001 13.3633 5.55841 13.2865C6.01921 14.6785 7.30561 15.6481 8.77441 15.6769C7.56481 16.6273 6.08641 17.1457 4.54081 17.1553C4.26241 17.1745 3.98401 17.1457 3.71521 17.0689C5.24161 18.1729 7.07521 18.7585 8.95681 18.7297L8.96641 18.7105Z" fill="#FBFBFB"/>
</svg>
