<svg width="24" height="24" viewBox="0 0 24 24" fill="none" xmlns="http://www.w3.org/2000/svg">
<path d="M12 5.70245C13.0272 5.66405 14.0448 5.68325 15.072 5.78885C15.5616 5.78885 16.0512 5.86565 16.5216 6.03845C17.1648 6.33605 17.6736 6.85445 17.9712 7.48805C18.144 7.94885 18.2304 8.43846 18.2208 8.93765C18.2208 9.70566 18.3072 9.95525 18.3072 12.0001C18.3456 13.0273 18.3168 14.0449 18.2208 15.0625C18.2208 15.5617 18.144 16.0513 17.9712 16.5121C17.6736 17.1553 17.1552 17.6641 16.5216 17.9617C16.0608 18.1345 15.5712 18.2209 15.072 18.2209C14.304 18.2209 14.0448 18.3073 12 18.3073C10.9824 18.3457 9.95525 18.3169 8.93765 18.2209C8.44805 18.2209 7.94885 18.1441 7.48805 17.9617C6.85445 17.6641 6.33605 17.1457 6.03845 16.5121C5.86565 16.0513 5.77925 15.5617 5.78885 15.0625C5.78885 14.2945 5.70245 14.0449 5.70245 12.0001C5.66405 10.9729 5.68325 9.95526 5.78885 8.93765C5.78885 8.43846 5.86565 7.94885 6.03845 7.48805C6.18245 7.17125 6.39365 6.88325 6.63365 6.63365C6.83525 6.33605 7.14245 6.12485 7.47845 6.03845C7.93925 5.86565 8.42885 5.77925 8.92805 5.78885C9.94565 5.69285 10.9728 5.66405 11.9904 5.70245H12ZM11.9904 4.33925C10.944 4.30085 9.88805 4.32965 8.84165 4.41605C8.20805 4.41605 7.56485 4.53125 6.96965 4.76165C6.45125 4.92485 5.98085 5.22245 5.60645 5.60645C5.21285 5.98085 4.92485 6.45125 4.75205 6.96965C4.48325 7.55525 4.36805 8.19845 4.40645 8.84165C4.31045 9.88805 4.28165 10.9441 4.32005 11.9905C4.28165 13.0369 4.31045 14.0929 4.40645 15.1393C4.40645 15.7825 4.52165 16.4161 4.74245 17.0113C4.91525 17.5297 5.20325 18.0001 5.59685 18.3745C5.97125 18.7681 6.44165 19.0657 6.96005 19.2289C7.55525 19.4497 8.19845 19.5649 8.83205 19.5649C9.87845 19.6609 10.9344 19.6897 11.9808 19.6513C13.0272 19.6897 14.0832 19.6609 15.1296 19.5649C15.7728 19.5649 16.4064 19.4497 17.0016 19.2289C18.0384 18.8737 18.864 18.0481 19.2192 17.0113C19.4496 16.4161 19.5552 15.7825 19.5552 15.1393C19.5552 14.2945 19.6416 14.0353 19.6416 11.9905C19.68 10.9441 19.6416 9.88805 19.5552 8.84165C19.5552 8.19845 19.44 7.56485 19.2192 6.96965C19.0464 6.45125 18.7584 5.98085 18.3648 5.60645C17.9808 5.22245 17.52 4.92485 17.0016 4.76165C16.4064 4.53125 15.7728 4.41605 15.1296 4.41605C14.0832 4.32005 13.0368 4.30085 11.9808 4.32965L11.9904 4.33925ZM11.9808 8.08325C9.85924 8.04485 8.10245 9.74405 8.06405 11.8753V12.0001C8.06405 14.1601 9.82085 15.9169 11.9808 15.9169C14.1408 15.9169 15.8976 14.1601 15.8976 12.0001C15.8976 9.84005 14.1408 8.08325 11.9808 8.08325ZM11.9808 14.5537C10.5984 14.5825 9.44644 13.4785 9.42725 12.0961V12.0001C9.39845 10.6177 10.5024 9.47525 11.8848 9.44645H11.9808C13.3632 9.41765 14.5056 10.5217 14.5344 11.9137V12.0097C14.5632 13.3921 13.4592 14.5345 12.0672 14.5633H11.9712L11.9808 14.5537ZM16.0608 6.97925C15.5424 6.97925 15.12 7.40165 15.12 7.92005C15.12 8.43845 15.5424 8.86085 16.0608 8.86085C16.5792 8.86085 17.0016 8.43845 17.0016 7.92005C17.0016 7.40165 16.5792 6.98885 16.0608 6.97925Z" fill="#FBFBFB"/>
</svg>
