<svg width="480" height="347" viewBox="0 0 480 347" fill="none" xmlns="http://www.w3.org/2000/svg">
<path d="M76.7998 42.2624C78.7065 42.2624 80.2156 42.2624 81.7247 42.2624C111.458 42.2624 141.191 42.191 170.923 42.3032C204.001 42.4255 228.289 66.53 228.37 99.5665C228.513 155.973 228.421 212.38 228.421 268.787C228.421 270.103 228.421 271.428 228.421 274.354C225.077 270.123 222.62 267.044 220.193 263.934C201.849 240.502 177.796 228.399 148.043 228.052C126.467 227.808 104.891 228.001 83.3052 228.001C81.2863 228.001 79.2674 228.001 76.7998 228.001V42.2624Z" fill="url(#paint0_linear_1159_2473)" style="mix-blend-mode:screen"/>
<path d="M398.138 30.5507V216.055C396.027 216.055 394.222 216.055 392.407 216.055C371.504 216.055 350.612 216.157 329.709 216.014C297.509 215.8 271.854 228.607 252.583 254.343C251.053 256.382 249.493 258.391 247.923 260.4C247.729 260.644 247.362 260.746 246.567 261.215C246.434 259.563 246.21 258.167 246.21 256.759C246.2 200.179 246.139 143.609 246.23 87.029C246.292 55.1548 270.906 30.4997 302.78 30.3468C332.85 30.204 362.929 30.3162 392.999 30.3264C394.497 30.3264 396.006 30.459 398.127 30.5507H398.138Z" fill="url(#paint1_linear_1159_2473)" style="mix-blend-mode:screen"/>
<path d="M423.69 243.453C421.6 243.453 419.785 243.453 417.97 243.453C388.584 243.453 359.208 243.606 329.832 243.412C297.631 243.198 271.987 255.903 252.706 281.629C250.921 284.004 249.096 286.35 246.476 289.765C246.098 280.813 246.027 274.134 251.258 267.16C271.661 239.945 298.263 226.629 332.279 227.271C355.874 227.72 379.489 227.363 403.093 227.363C405.112 227.363 407.131 227.363 409.68 227.363C409.803 224.661 410.007 222.346 410.007 220.032C410.027 163.309 410.007 106.586 410.037 49.8629C410.037 40.89 408.987 42.0422 417.858 41.9402C419.683 41.9198 421.508 41.9402 423.7 41.9402V243.453H423.69Z" fill="url(#paint2_linear_1159_2473)" style="mix-blend-mode:screen"/>
<path d="M219.323 282.23C214.193 275.7 209.923 269.466 204.9 264C188.129 245.761 167.533 236.6 143.517 236.487C115.029 236.354 86.5401 236.456 58.0612 236.456C56.1484 236.456 54.2356 236.456 51.8398 236.456V34.5601H64.4081V220.325C67.1323 220.325 69.0354 220.325 70.9385 220.325C94.9157 220.325 118.903 220.192 142.88 220.356C171.455 220.54 194.515 232.71 212.02 256.672C212.705 257.613 213.275 258.709 214.106 259.476C220.666 265.546 220.231 273.427 219.332 282.24L219.323 282.23Z" fill="url(#paint3_linear_1159_2473)" style="mix-blend-mode:screen"/>
<g filter="url(#filter0_b_1159_2473)">
<g filter="url(#filter1_b_1159_2473)">
<path d="M34.0645 0.0415702C36.6074 0.0415702 38.62 0.0415702 40.6325 0.0415702C80.2858 0.0415702 119.939 -0.0536194 159.592 0.0959642C203.706 0.259146 236.097 32.406 236.206 76.4652C236.397 151.692 236.274 226.919 236.274 302.146C236.274 303.9 236.274 305.668 236.274 309.571C231.814 303.927 228.537 299.821 225.3 295.673C200.837 264.424 168.758 248.282 129.077 247.82C100.303 247.494 71.5283 247.752 42.7403 247.752C40.0478 247.752 37.3553 247.752 34.0645 247.752V0.0415702Z" fill="url(#paint4_linear_1159_2473)" fill-opacity="0.8"/>
</g>
<g filter="url(#filter2_b_1159_2473)">
<path d="M445.909 0.367849V247.765C443.094 247.765 440.687 247.765 438.267 247.765C410.39 247.765 382.526 247.901 354.649 247.711C311.705 247.426 277.491 264.505 251.79 298.828C249.75 301.548 247.67 304.226 245.576 306.905C245.317 307.232 244.828 307.368 243.767 307.993C243.59 305.79 243.291 303.927 243.291 302.051C243.278 226.593 243.196 151.148 243.318 75.69C243.4 33.181 276.227 0.299857 318.736 0.0958791C358.838 -0.0945 398.953 0.0550836 439.055 0.0686821C441.054 0.0686821 443.067 0.245463 445.895 0.367849H445.909Z" fill="url(#paint5_linear_1159_2473)" fill-opacity="0.8"/>
</g>
<g filter="url(#filter3_b_1159_2473)">
<path d="M479.986 284.305C477.199 284.305 474.778 284.305 472.358 284.305C433.167 284.305 393.989 284.508 354.812 284.25C311.868 283.965 277.668 300.908 251.953 335.217C249.573 338.386 247.139 341.513 243.644 346.069C243.141 334.129 243.046 325.222 250.022 315.921C277.233 279.627 312.711 261.867 358.076 262.724C389.543 263.322 421.037 262.846 452.517 262.846C455.21 262.846 457.902 262.846 461.302 262.846C461.465 259.242 461.737 256.156 461.737 253.069C461.764 177.42 461.737 101.772 461.778 26.1233C461.778 14.1566 460.377 15.6932 472.208 15.5573C474.642 15.5301 477.076 15.5573 480 15.5573V284.305H479.986Z" fill="url(#paint6_linear_1159_2473)" fill-opacity="0.8"/>
</g>
<g filter="url(#filter4_b_1159_2473)">
<path d="M235.757 345.104C228.537 336.428 222.526 328.146 215.455 320.885C191.848 296.652 162.856 284.482 129.05 284.332C88.9478 284.155 48.8458 284.291 8.75744 284.291C6.06493 284.291 3.37243 284.291 0 284.291V16.0608H17.6917V262.86C21.5264 262.86 24.2053 262.86 26.8843 262.86C60.6357 262.86 94.4008 262.683 128.152 262.901C168.377 263.146 200.836 279.314 225.477 311.148C226.442 312.399 227.245 313.854 228.414 314.874C237.648 322.938 237.036 333.409 235.771 345.117L235.757 345.104Z" fill="url(#paint7_linear_1159_2473)" fill-opacity="0.8"/>
</g>
</g>
<defs>
<filter id="filter0_b_1159_2473" x="-160" y="-160" width="800" height="666.069" filterUnits="userSpaceOnUse" color-interpolation-filters="sRGB">
<feFlood flood-opacity="0" result="BackgroundImageFix"/>
<feGaussianBlur in="BackgroundImage" stdDeviation="80"/>
<feComposite in2="SourceAlpha" operator="in" result="effect1_backgroundBlur_1159_2473"/>
<feBlend mode="normal" in="SourceGraphic" in2="effect1_backgroundBlur_1159_2473" result="shape"/>
</filter>
<filter id="filter1_b_1159_2473" x="-23.9355" y="-57.9883" width="318.248" height="425.559" filterUnits="userSpaceOnUse" color-interpolation-filters="sRGB">
<feFlood flood-opacity="0" result="BackgroundImageFix"/>
<feGaussianBlur in="BackgroundImage" stdDeviation="29"/>
<feComposite in2="SourceAlpha" operator="in" result="effect1_backgroundBlur_1159_2473"/>
<feBlend mode="normal" in="SourceGraphic" in2="effect1_backgroundBlur_1159_2473" result="shape"/>
</filter>
<filter id="filter2_b_1159_2473" x="185.252" y="-58" width="318.657" height="423.993" filterUnits="userSpaceOnUse" color-interpolation-filters="sRGB">
<feFlood flood-opacity="0" result="BackgroundImageFix"/>
<feGaussianBlur in="BackgroundImage" stdDeviation="29"/>
<feComposite in2="SourceAlpha" operator="in" result="effect1_backgroundBlur_1159_2473"/>
<feBlend mode="normal" in="SourceGraphic" in2="effect1_backgroundBlur_1159_2473" result="shape"/>
</filter>
<filter id="filter3_b_1159_2473" x="185.442" y="-42.4548" width="352.558" height="446.524" filterUnits="userSpaceOnUse" color-interpolation-filters="sRGB">
<feFlood flood-opacity="0" result="BackgroundImageFix"/>
<feGaussianBlur in="BackgroundImage" stdDeviation="29"/>
<feComposite in2="SourceAlpha" operator="in" result="effect1_backgroundBlur_1159_2473"/>
<feBlend mode="normal" in="SourceGraphic" in2="effect1_backgroundBlur_1159_2473" result="shape"/>
</filter>
<filter id="filter4_b_1159_2473" x="-58" y="-41.9392" width="352.485" height="445.057" filterUnits="userSpaceOnUse" color-interpolation-filters="sRGB">
<feFlood flood-opacity="0" result="BackgroundImageFix"/>
<feGaussianBlur in="BackgroundImage" stdDeviation="29"/>
<feComposite in2="SourceAlpha" operator="in" result="effect1_backgroundBlur_1159_2473"/>
<feBlend mode="normal" in="SourceGraphic" in2="effect1_backgroundBlur_1159_2473" result="shape"/>
</filter>
<linearGradient id="paint0_linear_1159_2473" x1="152.625" y1="42.24" x2="152.625" y2="274.354" gradientUnits="userSpaceOnUse">
<stop stop-color="#0848ED"/>
<stop offset="1" stop-color="#1E5DFC"/>
</linearGradient>
<linearGradient id="paint1_linear_1159_2473" x1="322.159" y1="30.2749" x2="322.159" y2="261.215" gradientUnits="userSpaceOnUse">
<stop stop-color="#0848ED"/>
<stop offset="1" stop-color="#1E5DFC"/>
</linearGradient>
<linearGradient id="paint2_linear_1159_2473" x1="335.012" y1="41.9312" x2="335.012" y2="289.765" gradientUnits="userSpaceOnUse">
<stop stop-color="#0848ED"/>
<stop offset="1" stop-color="#1E5DFC"/>
</linearGradient>
<linearGradient id="paint3_linear_1159_2473" x1="135.84" y1="34.5601" x2="135.84" y2="282.24" gradientUnits="userSpaceOnUse">
<stop stop-color="#0848ED"/>
<stop offset="1" stop-color="#1E5DFC"/>
</linearGradient>
<linearGradient id="paint4_linear_1159_2473" x1="135.189" y1="0.0117187" x2="135.189" y2="309.571" gradientUnits="userSpaceOnUse">
<stop stop-color="#4677D7"/>
<stop offset="1" stop-color="#0034B9" stop-opacity="0.62"/>
</linearGradient>
<linearGradient id="paint5_linear_1159_2473" x1="344.58" y1="0" x2="344.58" y2="307.993" gradientUnits="userSpaceOnUse">
<stop stop-color="#4677D7"/>
<stop offset="1" stop-color="#0034B9" stop-opacity="0.62"/>
</linearGradient>
<linearGradient id="paint6_linear_1159_2473" x1="361.721" y1="15.5452" x2="361.721" y2="346.069" gradientUnits="userSpaceOnUse">
<stop stop-color="#4677D7"/>
<stop offset="1" stop-color="#0034B9" stop-opacity="0.62"/>
</linearGradient>
<linearGradient id="paint7_linear_1159_2473" x1="118.243" y1="16.0608" x2="118.243" y2="345.117" gradientUnits="userSpaceOnUse">
<stop stop-color="#4677D7"/>
<stop offset="1" stop-color="#0034B9" stop-opacity="0.62"/>
</linearGradient>
</defs>
</svg>
