<svg width="27" height="27" viewBox="0 0 27 27" fill="none" xmlns="http://www.w3.org/2000/svg">
<path d="M17.742 9.43115C19.427 9.43115 21.043 10.1005 22.2345 11.292C23.426 12.4835 24.0953 14.0995 24.0953 15.7845V23.1967H19.8598V15.7845C19.8598 15.2228 19.6367 14.6842 19.2395 14.287C18.8423 13.8898 18.3037 13.6667 17.742 13.6667C17.1803 13.6667 16.6417 13.8898 16.2445 14.287C15.8474 14.6842 15.6242 15.2228 15.6242 15.7845V23.1967H11.3887V15.7845C11.3887 14.0995 12.058 12.4835 13.2495 11.292C14.441 10.1005 16.057 9.43115 17.742 9.43115Z" fill="#0077B5"/>
<path d="M7.15352 10.49H2.91797V23.1967H7.15352V10.49Z" fill="#0077B5"/>
<path d="M5.03575 7.31319C6.20536 7.31319 7.15352 6.36503 7.15352 5.19541C7.15352 4.0258 6.20536 3.07764 5.03575 3.07764C3.86613 3.07764 2.91797 4.0258 2.91797 5.19541C2.91797 6.36503 3.86613 7.31319 5.03575 7.31319Z" fill="#0077B5"/>
</svg>
