<svg width="24" height="24" viewBox="0 0 24 24" fill="none" xmlns="http://www.w3.org/2000/svg">
<path d="M4.56955 19.6798H7.70875C7.77595 19.4686 7.72795 17.5198 7.72795 17.1262C7.72795 14.6014 7.77595 11.923 7.72795 9.43658H4.56955V19.6798ZM16.4928 19.6798H19.6896V13.6414C19.7376 12.8158 19.488 11.5486 19.1615 10.8958C18.8063 10.1566 18.2688 9.66698 17.4047 9.38858C16.1664 8.98538 14.5536 9.10058 13.5456 9.97418C13.3728 10.1182 13.2864 10.2142 13.1424 10.387C13.0848 10.4446 13.0272 10.531 12.9792 10.6078C12.7968 10.8862 12.9312 10.7998 12.7872 10.8286L12.768 9.41738H9.75355C9.70555 9.57098 9.70555 19.5358 9.75355 19.6798H12.8928C12.9408 19.5166 12.912 15.475 12.912 14.9278C12.912 13.3534 13.0848 12.0478 14.6976 11.971C16.464 11.8846 16.4928 13.4014 16.4928 14.9278C16.4928 15.3214 16.512 19.3918 16.4832 19.6702L16.4928 19.6798ZM5.91355 4.33898C4.96315 4.48298 4.15675 5.28938 4.31995 6.44138C4.45435 7.36298 5.31835 8.16938 6.42235 7.99658C7.33435 7.85258 8.14075 7.00778 7.97755 5.90378C7.83355 4.99178 6.97915 4.16618 5.90395 4.33898" fill="#FBFBFB"/>
</svg>
