<svg width="29" height="30" viewBox="0 0 29 30" fill="none" xmlns="http://www.w3.org/2000/svg">
<path d="M28.4865 14.2414C28.4865 13.8072 28.4217 13.3674 28.3623 12.9497C28.2762 12.3087 28.1444 11.6749 27.968 11.0534C27.1864 8.23711 25.5846 5.72798 23.3736 3.85676C21.1626 1.98554 18.4463 0.840078 15.5828 0.571375C15.1397 0.522615 14.6943 0.49876 14.2487 0.49992C13.7307 0.498612 13.2131 0.527976 12.6985 0.587865C9.43733 0.948702 6.3989 2.44528 4.0976 4.82423C1.79631 7.20318 0.373555 10.3183 0.0702171 13.6423C0 14.0985 0 14.5437 0 14.9999C0.000379677 15.4901 0.0256194 15.98 0.0756184 16.4675C0.331285 19.0794 1.28593 21.5699 2.83569 23.668C2.99036 23.8942 3.15809 24.1108 3.33801 24.3166C3.45684 24.4595 3.57567 24.608 3.7053 24.7454C3.83493 24.8828 4.01318 25.0862 4.17522 25.2511L4.66674 25.7348C5.00171 26.0491 5.35332 26.3445 5.71999 26.6197C5.90364 26.7571 6.08728 26.889 6.26012 27.021C6.43296 27.1529 6.63821 27.2793 6.83806 27.4057C7.22156 27.6366 7.62666 27.8619 8.03175 28.0653H8.05876L8.67991 28.3511C9.53872 28.7211 10.4304 29.0064 11.3428 29.2031H11.3914C11.6074 29.2471 11.8343 29.291 12.0557 29.324C12.2772 29.357 12.531 29.39 12.7741 29.412C13.0172 29.434 13.2548 29.4559 13.4925 29.4669C13.7301 29.4779 13.9408 29.4669 14.1676 29.4669H14.2271C14.4323 29.4669 14.643 29.4669 14.8482 29.4669C15.0535 29.4669 15.1777 29.4669 15.3451 29.4669H15.4532L16.0419 29.3955C17.6484 29.199 19.2082 28.7152 20.6492 27.9664L21.1894 27.6805C21.5296 27.4882 21.8537 27.2848 22.1724 27.0704C22.4101 26.911 22.6369 26.7461 22.8584 26.5757C23.1932 26.3119 23.5227 26.0261 23.8252 25.7567C25.533 24.1821 26.8398 22.2092 27.6331 20.0073C27.7087 19.7929 27.7844 19.5786 27.8546 19.3532C27.8546 19.3532 27.8546 19.3202 27.8546 19.3037C27.9194 19.0985 27.9788 18.8897 28.0328 18.6771C28.0706 18.5012 28.1138 18.3363 28.157 18.166C28.2003 17.9956 28.2003 17.9516 28.2219 17.8417C28.2651 17.6108 28.3029 17.3799 28.3407 17.1491C28.3785 16.9182 28.3947 16.7258 28.4109 16.5005C28.4271 16.2751 28.4541 16.0168 28.4703 15.7694C28.4865 15.5221 28.4703 15.2802 28.4703 15.0274V14.9999C28.4919 14.7434 28.4973 14.4906 28.4865 14.2414ZM20.7302 15.0604C20.7302 15.9508 20.7302 16.8248 20.7302 17.7042C20.7514 18.0382 20.6776 18.3713 20.5176 18.6638C20.3576 18.9562 20.1183 19.1955 19.8282 19.3532L15.1345 22.1015C14.8692 22.2714 14.5621 22.3615 14.2487 22.3615C13.9352 22.3615 13.6282 22.2714 13.3629 22.1015C11.8181 21.1946 10.2841 20.2821 8.73392 19.3532C8.43236 19.1929 8.18183 18.9486 8.01159 18.6488C7.84135 18.3491 7.75842 18.0062 7.77249 17.6603C7.77249 15.9069 7.77249 14.137 7.77249 12.3835C7.758 12.0229 7.84676 11.6657 8.02798 11.3554C8.20921 11.0451 8.4751 10.795 8.79334 10.6356C10.2949 9.77083 11.7911 8.89138 13.2818 7.99727C13.5638 7.80508 13.8945 7.7002 14.2339 7.69532C14.5732 7.69044 14.9067 7.78578 15.1939 7.96978C16.7063 8.87122 18.2186 9.77266 19.7526 10.6576C20.0682 10.8181 20.3297 11.0706 20.5038 11.3828C20.6779 11.6951 20.7567 12.053 20.7302 12.411C20.7086 13.307 20.7302 14.1809 20.7302 15.0604Z" fill="#FCFCFC"/>
</svg>
