<svg width="157" height="30" viewBox="0 0 157 30" fill="none" xmlns="http://www.w3.org/2000/svg">
<g clip-path="url(#clip0_1381_1284)">
<path d="M42.5243 17.8198C42.5388 18.1861 42.6458 18.5424 42.835 18.8543C43.0242 19.1663 43.2893 19.4233 43.6046 19.6007C44.2649 19.8935 44.9801 20.0361 45.7003 20.0184C46.4148 20.0696 47.1308 19.9412 47.7852 19.6446C47.9913 19.525 48.16 19.3485 48.2718 19.1355C48.3837 18.9226 48.434 18.6817 48.4171 18.4409C48.4193 18.0563 48.2785 17.6852 48.0228 17.402C47.6006 17.0367 47.0742 16.8189 46.5213 16.7809L44.4201 16.4401C42.5729 16.1433 41.1794 15.6376 40.2935 14.9121C39.4077 14.1865 38.9378 13.0982 38.9378 11.6141C38.9282 10.9098 39.0975 10.215 39.4293 9.59686C39.7581 8.99151 40.2226 8.47364 40.7851 8.0853C41.4159 7.63741 42.1174 7.30277 42.8592 7.09591C43.7296 6.86121 44.627 6.74659 45.5274 6.75513C46.5516 6.73262 47.5736 6.85847 48.563 7.12889C49.2839 7.32738 49.9605 7.66514 50.556 8.12378C51.0578 8.51453 51.4582 9.02395 51.7227 9.60785C51.994 10.208 52.1864 10.8419 52.2953 11.4932L48.6494 11.9714C48.5323 11.3531 48.2077 10.7955 47.7312 10.3939C47.1005 9.98682 46.359 9.79434 45.6138 9.84421C45.1585 9.83515 44.7036 9.87942 44.2581 9.97613C43.9598 10.0386 43.6746 10.1539 43.4155 10.3169C43.2295 10.4344 43.0769 10.5992 42.9726 10.7951C42.892 10.9494 42.8477 11.1206 42.843 11.2953C42.8229 11.5025 42.8539 11.7115 42.9331 11.9034C43.0123 12.0953 43.1373 12.2642 43.2967 12.3946C43.8399 12.7101 44.4411 12.9084 45.0629 12.9773L46.9912 13.3071C47.8953 13.444 48.7837 13.6723 49.6432 13.9886C50.2591 14.2192 50.8258 14.5682 51.3122 15.0165C51.7217 15.4056 52.025 15.8961 52.1926 16.4401C52.3669 17.0676 52.4506 17.7175 52.4411 18.3694C52.464 19.0437 52.329 19.7138 52.0473 20.3245C51.7655 20.9352 51.3451 21.469 50.8207 21.8817C49.7404 22.7667 48.0498 23.2064 45.7759 23.2064C44.9003 23.2082 44.0266 23.1236 43.167 22.9536C42.3831 22.8005 41.6329 22.5044 40.9525 22.0796C40.2945 21.6647 39.7399 21.1003 39.3321 20.4306C38.8864 19.6335 38.6414 18.7366 38.6191 17.8198H42.5243Z" fill="white"/>
<path d="M61.3968 23.2229C58.9446 23.2229 57.0469 22.5102 55.7038 21.0847C54.3607 19.6593 53.6909 17.6219 53.6945 14.9725C53.6771 13.806 53.8599 12.6452 54.2346 11.5426C54.5607 10.5783 55.0876 9.69711 55.7794 8.95925C56.4646 8.2447 57.2964 7.69291 58.2154 7.34325C59.2332 6.96103 60.312 6.77465 61.3968 6.7936C62.4904 6.7743 63.578 6.96064 64.6051 7.34325C65.5218 7.69443 66.3515 8.24607 67.0357 8.95925C67.7278 9.69492 68.2516 10.5771 68.5697 11.5426C68.9392 12.6466 69.1218 13.8064 69.1098 14.9725C69.1281 16.1481 68.9453 17.318 68.5697 18.4299C68.2424 19.3969 67.7157 20.2814 67.0249 21.0243C66.3441 21.7522 65.5118 22.3156 64.5889 22.6732C63.5684 23.0595 62.4854 23.246 61.3968 23.2229ZM61.3968 19.8975C61.9012 19.9334 62.4063 19.8364 62.8632 19.6159C63.3202 19.3955 63.7136 19.0589 64.0056 18.6387C64.6421 17.5361 64.9411 16.2654 64.8644 14.989C64.8644 13.406 64.5781 12.1986 64.0056 11.3668C63.6873 10.976 63.2883 10.6614 62.8369 10.4456C62.3855 10.2297 61.8928 10.1177 61.3941 10.1177C60.8953 10.1177 60.4027 10.2297 59.9513 10.4456C59.4999 10.6614 59.1008 10.976 58.7825 11.3668C58.21 12.1986 57.9237 13.406 57.9237 14.989C57.9237 16.5885 58.2046 17.8143 58.7717 18.6552C59.0674 19.0745 59.4643 19.4091 59.9242 19.6267C60.384 19.8443 60.8912 19.9376 61.3968 19.8975Z" fill="white"/>
<path d="M71.4863 1.5553H75.5697V22.7447H71.4863V1.5553Z" fill="white"/>
<path d="M87.5272 20.7879C86.9472 21.4623 86.2631 22.036 85.5017 22.4863C84.6049 22.9564 83.6037 23.1817 82.5958 23.1404C81.9403 23.1418 81.2878 23.0512 80.6567 22.8711C80.0668 22.7091 79.5155 22.4267 79.0363 22.0411C78.5752 21.649 78.2061 21.157 77.956 20.601C77.6662 19.9432 77.5259 19.2274 77.5455 18.5068C77.504 17.583 77.7497 16.6694 78.2477 15.8959C78.7175 15.2205 79.3498 14.6792 80.0842 14.3239C80.8922 13.9286 81.753 13.6563 82.639 13.5159C83.5898 13.3558 84.5495 13.2567 85.5125 13.2191L87.4678 13.1311V12.3561C87.4678 11.4107 87.2085 10.7566 86.6954 10.3993C86.157 10.0291 85.5194 9.83716 84.8697 9.84966C83.2601 9.84966 82.3365 10.4726 82.0988 11.7185L78.3665 11.3612C78.4445 10.6547 78.6729 9.97399 79.0358 9.36646C79.3986 8.75892 79.8873 8.23918 80.4676 7.84341C81.8545 7.05072 83.432 6.66985 85.021 6.74409C86.0281 6.71941 87.0321 6.86618 87.9917 7.17832C88.7381 7.41809 89.4151 7.84091 89.9632 8.40956C90.468 8.96102 90.8381 9.62573 91.0434 10.3499C91.2751 11.1848 91.3879 12.0492 91.3783 12.9168V22.7447H87.5272V20.7879ZM87.4407 15.8409L85.6313 15.9289C84.9348 15.9501 84.2419 16.0404 83.5626 16.1982C83.1307 16.2961 82.7193 16.471 82.3473 16.7149C82.0888 16.8934 81.8908 17.1487 81.7802 17.446C81.6798 17.7411 81.6305 18.0516 81.6343 18.3639C81.6254 18.5959 81.6696 18.8269 81.7633 19.0387C81.857 19.2504 81.9978 19.4371 82.1745 19.5841C82.5936 19.9033 83.1103 20.061 83.6328 20.0293C84.5444 20.0713 85.4448 19.8109 86.1984 19.2873C86.5718 19.0058 86.8812 18.6459 87.1059 18.232C87.3542 17.7416 87.475 17.1948 87.4569 16.6434L87.4407 15.8409Z" fill="white"/>
<path d="M94.1172 7.25529H98.0872V9.42095C98.5348 8.66202 99.1674 8.03347 99.9236 7.59608C100.617 7.19572 101.4 6.98549 102.198 6.98596C102.519 6.98362 102.839 6.9983 103.159 7.02993C103.413 7.02993 103.634 7.09589 103.829 7.13437L103.337 10.905C102.772 10.7735 102.194 10.7126 101.614 10.7236C101.181 10.7219 100.748 10.7773 100.329 10.8885C99.918 10.9987 99.5387 11.2058 99.2214 11.4932C98.8843 11.7943 98.62 12.1705 98.449 12.5925C98.2847 12.9775 98.2002 13.3929 98.2006 13.8127V22.7722H94.1172V7.25529Z" fill="white"/>
<path d="M108.264 17.8197C108.279 18.186 108.386 18.5424 108.575 18.8543C108.764 19.1663 109.029 19.4233 109.344 19.6006C110.007 19.8934 110.724 20.036 111.445 20.0184C112.16 20.0689 112.876 19.9406 113.53 19.6446C113.735 19.5233 113.902 19.3463 114.012 19.1336C114.123 18.9209 114.173 18.681 114.157 18.4409C114.162 18.0558 114.021 17.6837 113.763 17.402C113.341 17.0356 112.814 16.8178 112.261 16.7809L110.187 16.4401C108.34 16.1433 106.946 15.6376 106.06 14.9121C105.593 14.5114 105.227 14.0033 104.991 13.4298C104.755 12.8563 104.657 12.2339 104.705 11.6141C104.694 10.9111 104.86 10.217 105.185 9.59685C105.514 8.9915 105.979 8.47363 106.541 8.08529C107.167 7.6401 107.863 7.30561 108.599 7.0959C109.469 6.86153 110.367 6.74691 111.267 6.75511C112.291 6.73209 113.314 6.85794 114.303 7.12888C115.025 7.3285 115.703 7.66613 116.301 8.12376C116.8 8.51761 117.2 9.02622 117.468 9.60784C117.737 10.2083 117.928 10.8421 118.035 11.4932L114.389 11.9714C114.273 11.3543 113.948 10.798 113.471 10.3994C112.837 10.0078 112.098 9.83072 111.359 9.89367C110.902 9.88463 110.445 9.92889 109.998 10.0256C109.7 10.09 109.415 10.2053 109.155 10.3664C108.969 10.4823 108.818 10.6477 108.718 10.8446C108.637 10.9989 108.593 11.1701 108.588 11.3448C108.567 11.5515 108.598 11.7601 108.676 11.952C108.754 12.1439 108.878 12.313 109.036 12.4441C109.58 12.7595 110.181 12.9579 110.803 13.0267L112.726 13.351C113.631 13.4887 114.521 13.717 115.383 14.0326C116.001 14.262 116.57 14.611 117.057 15.0605C117.462 15.4347 117.764 15.9104 117.932 16.4401C118.109 17.067 118.193 17.7173 118.181 18.3694C118.203 19.0435 118.068 19.7134 117.786 20.3239C117.504 20.9345 117.084 21.4684 116.561 21.8817C115.48 22.7648 113.799 23.2064 111.516 23.2064C110.638 23.2085 109.763 23.1238 108.901 22.9536C108.118 22.8004 107.367 22.5044 106.687 22.0796C106.027 21.6666 105.472 21.1018 105.066 20.4306C104.616 19.6356 104.371 18.7374 104.354 17.8197H108.264Z" fill="white"/>
<path d="M127.137 23.2229C124.685 23.2229 122.789 22.5101 121.449 21.0847C120.11 19.6592 119.438 17.6218 119.434 14.9725C119.42 13.8061 119.602 12.6459 119.975 11.5426C120.303 10.578 120.831 9.69676 121.525 8.95921C122.209 8.24604 123.039 7.69439 123.955 7.34322C126.021 6.58839 128.28 6.58839 130.345 7.34322C131.263 7.69432 132.095 8.24592 132.781 8.95921C133.471 9.6952 133.993 10.5774 134.31 11.5426C134.679 12.6465 134.862 13.8063 134.85 14.9725C134.865 16.1479 134.683 17.3173 134.31 18.4298C133.98 19.3958 133.454 20.28 132.765 21.0242C132.083 21.751 131.251 22.3143 130.329 22.6732C129.308 23.0584 128.225 23.2449 127.137 23.2229ZM127.137 19.8974C127.641 19.9333 128.146 19.8364 128.603 19.6159C129.06 19.3954 129.454 19.0589 129.746 18.6387C130.384 17.5368 130.685 16.266 130.61 14.989C130.688 13.7204 130.387 12.4574 129.746 11.3667C129.428 10.976 129.029 10.6616 128.578 10.4457C128.127 10.2298 127.635 10.1179 127.137 10.1179C126.638 10.1179 126.146 10.2298 125.695 10.4457C125.244 10.6616 124.846 10.976 124.528 11.3667C123.952 12.1839 123.673 13.3858 123.691 14.9725C123.605 16.2501 123.89 17.5252 124.512 18.6387C124.805 19.061 125.202 19.3988 125.662 19.6194C126.121 19.8399 126.63 19.9357 127.137 19.8974Z" fill="white"/>
<path d="M138.188 10.4873H135.801V7.25531H138.188V6.74963C138.171 5.90979 138.31 5.07423 138.599 4.28715C138.838 3.64148 139.223 3.06175 139.722 2.5942C140.208 2.15356 140.781 1.82372 141.402 1.62681C142.081 1.41649 142.788 1.3127 143.498 1.319C144.01 1.31953 144.522 1.34889 145.032 1.40694C145.591 1.47116 146.143 1.59082 146.679 1.76422L146.139 4.78734C145.558 4.63716 144.961 4.55781 144.362 4.55099C143.849 4.54693 143.348 4.70858 142.931 5.0127C142.7 5.21337 142.521 5.46871 142.41 5.75625C142.298 6.04379 142.258 6.35472 142.293 6.66168V7.25531H145.82V10.4873H142.293V22.7447H138.204L138.188 10.4873Z" fill="white"/>
<path d="M148.893 10.4874H146.506V7.25538H148.893V3.12744H152.977V7.25538H156.477V10.4874H152.977V17.6329C152.941 17.9279 152.966 18.2273 153.052 18.5114C153.138 18.7956 153.281 19.0582 153.474 19.2819C153.835 19.5828 154.293 19.7374 154.759 19.7161C155.029 19.7161 155.299 19.7161 155.591 19.6722C155.87 19.6395 156.147 19.5844 156.417 19.5073L157.001 22.5634C156.463 22.7355 155.912 22.8587 155.353 22.9317C154.846 23.0004 154.336 23.0352 153.825 23.0361C152.15 23.0361 150.913 22.6348 150.103 21.8213C149.293 21.0078 148.893 19.6227 148.893 17.7264V10.4874Z" fill="white"/>
<path d="M28.4865 14.2414C28.4865 13.8072 28.4217 13.3674 28.3623 12.9497C28.2762 12.3087 28.1444 11.6749 27.968 11.0534C27.1864 8.23711 25.5846 5.72798 23.3736 3.85676C21.1626 1.98554 18.4463 0.840078 15.5828 0.571375C15.1397 0.522615 14.6943 0.49876 14.2487 0.49992C13.7307 0.498612 13.2131 0.527976 12.6985 0.587865C9.43733 0.948702 6.3989 2.44528 4.0976 4.82423C1.79631 7.20318 0.373555 10.3183 0.0702171 13.6423C0 14.0985 0 14.5437 0 14.9999C0.000379677 15.4901 0.0256194 15.98 0.0756184 16.4675C0.331285 19.0794 1.28593 21.5699 2.83569 23.668C2.99036 23.8942 3.15809 24.1108 3.33801 24.3166C3.45684 24.4595 3.57567 24.608 3.7053 24.7454C3.83493 24.8828 4.01318 25.0862 4.17522 25.2511L4.66674 25.7348C5.00171 26.0491 5.35332 26.3445 5.71999 26.6197C5.90364 26.7571 6.08728 26.889 6.26012 27.021C6.43296 27.1529 6.63821 27.2793 6.83806 27.4057C7.22156 27.6366 7.62666 27.8619 8.03175 28.0653H8.05876L8.67991 28.3511C9.53872 28.7211 10.4304 29.0064 11.3428 29.2031H11.3914C11.6074 29.2471 11.8343 29.291 12.0557 29.324C12.2772 29.357 12.531 29.39 12.7741 29.412C13.0172 29.434 13.2548 29.4559 13.4925 29.4669C13.7301 29.4779 13.9408 29.4669 14.1676 29.4669H14.2271C14.4323 29.4669 14.643 29.4669 14.8482 29.4669C15.0535 29.4669 15.1777 29.4669 15.3451 29.4669H15.4532L16.0419 29.3955C17.6484 29.199 19.2082 28.7152 20.6492 27.9664L21.1894 27.6805C21.5296 27.4882 21.8537 27.2848 22.1724 27.0704C22.4101 26.911 22.6369 26.7461 22.8584 26.5757C23.1932 26.3119 23.5227 26.0261 23.8252 25.7567C25.533 24.1821 26.8398 22.2092 27.6331 20.0073C27.7087 19.7929 27.7844 19.5786 27.8546 19.3532C27.8546 19.3532 27.8546 19.3202 27.8546 19.3037C27.9194 19.0985 27.9788 18.8897 28.0328 18.6771C28.0706 18.5012 28.1138 18.3363 28.157 18.166C28.2003 17.9956 28.2003 17.9516 28.2219 17.8417C28.2651 17.6108 28.3029 17.3799 28.3407 17.1491C28.3785 16.9182 28.3947 16.7258 28.4109 16.5005C28.4271 16.2751 28.4541 16.0168 28.4703 15.7694C28.4865 15.5221 28.4703 15.2802 28.4703 15.0274V14.9999C28.4919 14.7434 28.4973 14.4906 28.4865 14.2414ZM20.7302 15.0604C20.7302 15.9508 20.7302 16.8248 20.7302 17.7042C20.7514 18.0382 20.6776 18.3713 20.5176 18.6638C20.3576 18.9562 20.1183 19.1955 19.8282 19.3532L15.1345 22.1015C14.8692 22.2714 14.5621 22.3615 14.2487 22.3615C13.9352 22.3615 13.6282 22.2714 13.3629 22.1015C11.8181 21.1946 10.2841 20.2821 8.73392 19.3532C8.43236 19.1929 8.18183 18.9486 8.01159 18.6488C7.84135 18.3491 7.75842 18.0062 7.77249 17.6603C7.77249 15.9069 7.77249 14.137 7.77249 12.3835C7.758 12.0229 7.84676 11.6657 8.02798 11.3554C8.20921 11.0451 8.4751 10.795 8.79334 10.6356C10.2949 9.77083 11.7911 8.89138 13.2818 7.99727C13.5638 7.80508 13.8945 7.7002 14.2339 7.69532C14.5732 7.69044 14.9067 7.78578 15.1939 7.96978C16.7063 8.87122 18.2186 9.77266 19.7526 10.6576C20.0682 10.8181 20.3297 11.0706 20.5038 11.3828C20.6779 11.6951 20.7567 12.053 20.7302 12.411C20.7086 13.307 20.7302 14.1809 20.7302 15.0604Z" fill="white"/>
</g>
<defs>
<clipPath id="clip0_1381_1284">
<rect width="157" height="29" fill="white" transform="translate(0 0.5)"/>
</clipPath>
</defs>
</svg>
