<svg width="296" height="64" viewBox="0 0 296 64" fill="none" xmlns="http://www.w3.org/2000/svg">
<path d="M223.753 36.992H218.953C218.581 36.9826 218.229 36.833 217.966 36.5741C217.702 36.3152 217.551 35.9667 217.541 35.6006V34.4876C217.551 34.1216 217.702 33.7731 217.966 33.5142C218.229 33.2553 218.581 33.1057 218.953 33.0963H223.057C223.431 33.0963 223.79 32.9497 224.055 32.6888C224.32 32.4279 224.469 32.074 224.469 31.705C224.469 31.3361 224.32 30.9821 224.055 30.7212C223.79 30.4603 223.431 30.3137 223.057 30.3137H218.916C218.544 30.3043 218.191 30.1547 217.928 29.8958C217.665 29.6369 217.513 29.2884 217.504 28.9224V27.8094C217.513 27.4434 217.665 27.0948 217.928 26.8359C218.191 26.577 218.544 26.4274 218.916 26.418H223.621C223.996 26.418 224.355 26.2715 224.62 26.0105C224.885 25.7496 225.033 25.3957 225.033 25.0268C225.033 24.6578 224.885 24.3039 224.62 24.043C224.355 23.782 223.996 23.6354 223.621 23.6354H217.974C217.754 23.631 217.54 23.7029 217.367 23.8386C217.195 23.9741 217.077 24.1648 217.033 24.3775L214.021 38.3833V38.6615C214.074 38.9867 214.248 39.2807 214.51 39.4865C214.771 39.6922 215.1 39.7949 215.433 39.7746H223.716C224.09 39.7746 224.449 39.628 224.714 39.3671C224.979 39.1061 225.127 38.7522 225.127 38.3833C225.127 38.0143 224.979 37.6604 224.714 37.3995C224.449 37.1385 224.09 36.992 223.716 36.992H223.753Z" fill="#5C6786"/>
<path d="M119.283 23.7283H117.401C117.124 23.7318 116.853 23.8118 116.62 23.9595C116.387 24.1071 116.202 24.3162 116.083 24.5631L111.942 34.395C111.942 34.4196 111.931 34.4432 111.915 34.4606C111.897 34.478 111.873 34.4877 111.848 34.4877C111.754 34.4877 111.754 34.4877 111.754 34.395L107.612 24.5631C107.512 24.3122 107.35 24.0893 107.142 23.9138C106.765 23.6356 106.295 24.0066 106.201 24.4704L103.095 38.6616C103.07 38.8223 103.103 38.9864 103.189 39.1254C103.302 39.3496 103.476 39.5382 103.692 39.6694C103.909 39.8006 104.158 39.8692 104.412 39.8675H104.977C105.342 39.8488 105.686 39.6952 105.941 39.4373C106.196 39.1793 106.342 38.836 106.351 38.4761V29.3862C106.351 29.3617 106.362 29.3381 106.379 29.3207C106.396 29.3033 106.42 29.2935 106.445 29.2935C106.471 29.2935 106.494 29.3033 106.512 29.3207C106.529 29.3381 106.539 29.3617 106.539 29.3862L110.398 38.9399C110.501 39.198 110.683 39.4176 110.92 39.5675C111.157 39.7174 111.435 39.7899 111.716 39.7747H112.092C112.369 39.7712 112.64 39.6911 112.873 39.5435C113.106 39.3959 113.291 39.1868 113.41 38.9399L117.269 29.479C117.269 29.4545 117.279 29.4309 117.296 29.4134C117.314 29.396 117.338 29.3862 117.363 29.3862C117.388 29.3862 117.412 29.396 117.43 29.4134C117.447 29.4309 117.457 29.4545 117.457 29.479V38.4761C117.467 38.8422 117.618 39.1907 117.882 39.4496C118.144 39.7084 118.497 39.8581 118.869 39.8675H119.434C119.805 39.8581 120.158 39.7084 120.421 39.4496C120.684 39.1907 120.836 38.8422 120.845 38.4761V25.1196C120.78 24.7487 120.592 24.4099 120.309 24.1575C120.025 23.9053 119.664 23.7541 119.283 23.7283Z" fill="#5C6786"/>
<path d="M162.39 31.2414H158.249C157.9 31.2414 157.565 31.3781 157.317 31.6217C157.07 31.8652 156.931 32.1955 156.931 32.5399C156.931 32.8843 157.07 33.2146 157.317 33.4581C157.565 33.7016 157.9 33.8385 158.249 33.8385H159.002C159.755 33.8385 160.508 34.4877 160.131 35.2297C159.567 36.4356 158.437 37.0848 156.649 37.0848C154.014 37.0848 152.414 35.137 152.414 31.7979C152.414 28.4587 154.108 26.5109 156.649 26.5109C157.238 26.4809 157.825 26.6018 158.353 26.8619C158.881 27.122 159.331 27.5124 159.661 27.995C159.808 28.2654 160.024 28.4932 160.288 28.656C160.553 28.8186 160.855 28.9106 161.167 28.9225H162.014C162.204 28.9378 162.396 28.9071 162.571 28.8331C162.747 28.7591 162.901 28.6441 163.022 28.498C163.142 28.3519 163.225 28.1791 163.263 27.9944C163.3 27.8099 163.291 27.619 163.237 27.4385C162.65 26.2224 161.712 25.2041 160.54 24.5111C159.367 23.8182 158.015 23.4814 156.649 23.5428C152.32 23.5428 149.025 26.6037 149.025 31.7979C149.025 36.9921 152.131 40.053 156.743 40.053C160.884 40.053 163.802 37.4558 163.802 33.282V32.6326C163.806 32.4489 163.772 32.2662 163.702 32.0958C163.632 31.9252 163.529 31.7703 163.397 31.6404C163.265 31.5105 163.108 31.4081 162.935 31.3396C162.762 31.2709 162.576 31.2375 162.39 31.2414Z" fill="#5C6786"/>
<path d="M137.918 24.6559C137.821 24.3867 137.643 24.1533 137.408 23.9874C137.172 23.8214 136.89 23.731 136.6 23.7283H134.153C133.863 23.731 133.582 23.8214 133.346 23.9874C133.111 24.1533 132.933 24.3867 132.836 24.6559L128.13 38.0124C128.059 38.2212 128.04 38.4434 128.072 38.6612C128.104 38.879 128.187 39.0863 128.315 39.2666C128.443 39.447 128.613 39.5952 128.809 39.6996C129.005 39.8039 129.224 39.8614 129.447 39.8675H130.2C130.49 39.8647 130.772 39.7743 131.008 39.6084C131.243 39.4424 131.421 39.209 131.518 38.9399L132.083 37.1776C132.18 36.9084 132.358 36.6751 132.593 36.5092C132.829 36.3432 133.111 36.2528 133.4 36.2501H137.259C137.549 36.2528 137.831 36.3432 138.067 36.5092C138.302 36.6751 138.48 36.9084 138.577 37.1776L139.142 38.9399C139.239 39.209 139.416 39.4424 139.652 39.6084C139.888 39.7743 140.169 39.8647 140.459 39.8675H141.212C141.435 39.8614 141.655 39.8039 141.85 39.6996C142.047 39.5952 142.216 39.447 142.344 39.2666C142.472 39.0863 142.556 38.879 142.588 38.6612C142.62 38.4434 142.6 38.2212 142.53 38.0124L137.918 24.6559ZM135.528 33.4675H135.245C135.022 33.4614 134.803 33.4038 134.606 33.2996C134.41 33.1952 134.241 33.047 134.113 32.8666C133.985 32.6863 133.901 32.479 133.869 32.2612C133.837 32.0434 133.857 31.8212 133.928 31.6124L135.339 27.3457C135.339 27.3211 135.35 27.2975 135.367 27.2801C135.384 27.2628 135.408 27.253 135.433 27.253C135.459 27.253 135.482 27.2628 135.5 27.2801C135.517 27.2975 135.528 27.3211 135.528 27.3457L136.939 31.6124C136.99 31.8277 136.993 32.0514 136.947 32.2678C136.902 32.4841 136.807 32.688 136.673 32.8648C136.538 33.0417 136.366 33.1874 136.168 33.2915C135.97 33.3956 135.752 33.4556 135.528 33.4675Z" fill="#5C6786"/>
<path d="M173.306 23.7283H172.647C172.275 23.7377 171.922 23.8873 171.66 24.1462C171.396 24.4052 171.245 24.7536 171.235 25.1196V38.4761C171.245 38.8422 171.396 39.1907 171.66 39.4496C171.922 39.7084 172.275 39.8581 172.647 39.8675H173.306C173.678 39.8581 174.031 39.7084 174.293 39.4496C174.557 39.1907 174.708 38.8422 174.718 38.4761V25.1196C174.693 24.7585 174.537 24.4183 174.277 24.1624C174.017 23.9065 173.672 23.7523 173.306 23.7283Z" fill="#5C6786"/>
<path d="M189.778 26.5111C190.413 26.4939 191.04 26.6386 191.601 26.9311C192.161 27.2237 192.637 27.6541 192.978 28.1806C193.1 28.5037 193.318 28.7828 193.603 28.9815C193.889 29.1801 194.229 29.289 194.578 29.2937H195.237C195.427 29.3089 195.619 29.2782 195.794 29.2043C195.97 29.1303 196.125 29.0153 196.245 28.8692C196.365 28.723 196.448 28.5502 196.486 28.3656C196.524 28.181 196.515 27.9901 196.461 27.8096C195.519 25.027 192.978 23.4502 189.684 23.4502C185.355 23.4502 182.061 26.4183 182.061 31.7053C182.061 36.9922 185.261 39.9603 189.684 39.9603C193.166 39.9603 195.519 38.1053 196.366 35.7864C196.421 35.6059 196.429 35.415 196.392 35.2304C196.354 35.0458 196.271 34.873 196.151 34.7269C196.03 34.5807 195.876 34.4657 195.7 34.3917C195.525 34.3178 195.333 34.2871 195.143 34.3023H194.39C194.047 34.3322 193.719 34.4509 193.437 34.6463C193.157 34.8418 192.933 35.1072 192.79 35.4154C192.477 35.9466 192.021 36.3829 191.473 36.6772C190.925 36.9715 190.307 37.1126 189.684 37.0849C187.237 37.0849 185.543 35.2299 185.543 31.7981C185.543 28.3661 187.237 26.5111 189.778 26.5111Z" fill="#5C6786"/>
<path d="M238.531 23.7283H234.107C233.735 23.7377 233.382 23.8873 233.12 24.1462C232.856 24.4052 232.705 24.7536 232.695 25.1196V38.4761C232.705 38.8422 232.856 39.1907 233.12 39.4496C233.382 39.7084 233.735 39.8581 234.107 39.8675H238.531C243.519 39.8675 246.531 36.8066 246.531 31.7979C246.531 26.7892 243.425 23.7283 238.531 23.7283ZM238.342 36.8994H237.589C237.218 36.89 236.865 36.7403 236.602 36.4814C236.339 36.2225 236.187 35.8741 236.178 35.508V27.995C236.187 27.629 236.339 27.2805 236.602 27.0215C236.865 26.7626 237.218 26.6131 237.589 26.6037H238.342C241.448 26.6037 243.048 28.1805 243.048 31.7051C243.048 35.2297 241.448 36.8994 238.342 36.8994Z" fill="#5C6786"/>
<path d="M263.471 36.992H258.671C258.3 36.9826 257.947 36.8331 257.684 36.5741C257.421 36.3152 257.269 35.9668 257.26 35.6007V34.4876C257.269 34.1216 257.421 33.7732 257.684 33.5143C257.947 33.2554 258.3 33.1057 258.671 33.0964H262.813C263.187 33.0964 263.546 32.9498 263.811 32.6889C264.076 32.428 264.224 32.0741 264.224 31.705C264.224 31.336 264.076 30.9821 263.811 30.7212C263.546 30.4603 263.187 30.3137 262.813 30.3137H258.671C258.3 30.3044 257.947 30.1547 257.684 29.8958C257.421 29.6369 257.269 29.2885 257.26 28.9225V27.8094C257.269 27.4434 257.421 27.0949 257.684 26.836C257.947 26.5771 258.3 26.4275 258.671 26.4181H263.377C263.752 26.4181 264.111 26.2715 264.376 26.0106C264.64 25.7497 264.789 25.3958 264.789 25.0268C264.789 24.6578 264.64 24.3039 264.376 24.043C264.111 23.782 263.752 23.6355 263.377 23.6355H255.189C254.817 23.6449 254.464 23.7945 254.202 24.0534C253.938 24.3123 253.787 24.6607 253.777 25.0268V38.3834C253.787 38.7494 253.938 39.0978 254.202 39.3567C254.464 39.6156 254.817 39.7652 255.189 39.7746H263.471C263.843 39.7652 264.196 39.6156 264.459 39.3567C264.722 39.0978 264.874 38.7494 264.883 38.3834C264.887 38.1995 264.853 38.017 264.783 37.8464C264.714 37.6759 264.61 37.5211 264.479 37.3911C264.347 37.2611 264.19 37.1588 264.016 37.0902C263.843 37.0217 263.658 36.9883 263.471 36.992Z" fill="#5C6786"/>
<path d="M284.741 23.7283H284.082C283.71 23.7377 283.357 23.8873 283.095 24.1462C282.831 24.4052 282.68 24.7536 282.67 25.1196V33.7457C282.67 33.8385 282.67 33.8385 282.576 33.8385H282.482L275.894 24.3776C275.766 24.2008 275.596 24.0577 275.4 23.9607C275.203 23.8637 274.984 23.8157 274.764 23.8211H273.88C273.508 23.8305 273.155 23.98 272.892 24.239C272.629 24.4979 272.477 24.8463 272.468 25.2124V38.5689C272.477 38.935 272.629 39.2834 272.892 39.5423C273.155 39.8012 273.508 39.9508 273.88 39.9602H274.538C274.91 39.9508 275.263 39.8012 275.526 39.5423C275.789 39.2834 275.941 38.935 275.95 38.5689V29.8501C275.95 29.8255 275.96 29.8019 275.977 29.7845C275.995 29.767 276.019 29.7573 276.044 29.7573H276.138L282.821 39.2182C282.949 39.3949 283.118 39.5381 283.315 39.6351C283.512 39.7321 283.73 39.78 283.95 39.7747H284.797C285.169 39.7653 285.522 39.6157 285.784 39.3568C286.048 39.0979 286.2 38.7494 286.209 38.3834V25.0269C286.145 24.6806 285.966 24.365 285.701 24.1299C285.434 23.8948 285.097 23.7535 284.741 23.7283Z" fill="#5C6786"/>
<path d="M62.4633 20.7879L66.821 25.9079C67.3198 26.483 67.7622 26.956 67.941 27.225C69.2442 28.5201 69.975 30.2705 69.9739 32.0945C69.8516 34.2464 68.4492 35.712 67.1504 37.2795L64.101 40.8598L62.5104 42.7149C62.4534 42.7788 62.4166 42.8578 62.4045 42.9423C62.3926 43.0266 62.4059 43.1125 62.443 43.1895C62.48 43.2665 62.5391 43.3311 62.613 43.3753C62.6869 43.4194 62.7722 43.4414 62.8586 43.4384H78.7551C81.1833 43.4384 84.2422 45.4789 84.0633 48.5769C84.0583 49.9849 83.4886 51.334 82.4783 52.3296C81.468 53.3252 80.0992 53.8867 78.6704 53.8916H53.7763C52.1386 53.8916 47.7339 54.0679 46.501 50.3114C46.2388 49.5264 46.2029 48.6851 46.3975 47.8812C46.7559 46.6926 47.3228 45.5749 48.0728 44.5792C49.3245 42.7241 50.6798 40.869 52.0163 39.0696C53.7386 36.7136 55.508 34.432 57.2492 32.0296C57.3111 31.9514 57.3447 31.8551 57.3447 31.756C57.3447 31.6569 57.3111 31.5606 57.2492 31.4824L50.9245 24.0621C50.8833 24.0083 50.8299 23.9647 50.7687 23.9346C50.7075 23.9046 50.64 23.889 50.5716 23.889C50.5032 23.889 50.4357 23.9046 50.3745 23.9346C50.3132 23.9647 50.2599 24.0083 50.2186 24.0621C48.5245 26.316 41.108 36.2963 39.5269 38.3184C37.9457 40.3404 34.0492 40.4516 31.8939 38.3184L22.0022 28.5328C21.939 28.4704 21.8584 28.4277 21.7706 28.4105C21.6828 28.3932 21.5918 28.402 21.5092 28.4358C21.4264 28.4696 21.3558 28.5268 21.3062 28.6002C21.2566 28.6736 21.2302 28.76 21.2304 28.8481V47.6679C21.2536 49.0034 20.8524 50.3126 20.0827 51.4121C19.3131 52.5115 18.2137 53.3461 16.9386 53.7989C16.1239 54.0784 15.2532 54.1618 14.399 54.0423C13.5448 53.9228 12.7321 53.6037 12.0285 53.1118C11.3249 52.6199 10.7508 51.9693 10.3541 51.2144C9.95746 50.4593 9.74965 49.6219 9.74805 48.7716V14.9351C9.8048 13.7157 10.25 12.545 11.0204 11.5892C11.7909 10.6335 12.8473 9.94132 14.0398 9.61106C15.0627 9.34252 16.1394 9.34521 17.1608 9.61887C18.1823 9.89247 19.1122 10.4274 19.8563 11.1694L35.0657 26.1769C35.1112 26.2224 35.1663 26.2576 35.2272 26.2799C35.288 26.3021 35.3531 26.3109 35.4178 26.3056C35.4824 26.3003 35.5451 26.281 35.6014 26.2492C35.6577 26.2173 35.7061 26.1736 35.7433 26.1212L46.548 11.3826C47.0473 10.7843 47.6733 10.3008 48.3822 9.96597C49.091 9.6311 49.8656 9.45303 50.6516 9.44409H78.7551C79.5242 9.44541 80.2842 9.60842 80.9842 9.9224C81.6842 10.2365 82.3081 10.6942 82.8142 11.2649C83.3203 11.8356 83.6968 12.5063 83.9188 13.232C84.1407 13.9578 84.2028 14.7218 84.101 15.4731C83.903 16.7763 83.232 17.9647 82.2126 18.8175C81.1931 19.6703 79.8945 20.1298 78.5575 20.1108H62.821C62.7419 20.1127 62.6648 20.1355 62.5976 20.1767C62.5305 20.2179 62.4759 20.2762 62.4393 20.3453C62.4028 20.4144 62.3858 20.492 62.39 20.5698C62.3943 20.6477 62.4196 20.723 62.4633 20.7879Z" fill="#5C6786"/>
</svg>
