<svg width="32" height="32" viewBox="0 0 32 32" fill="none" xmlns="http://www.w3.org/2000/svg">
<path d="M0 8C0 3.58172 3.58172 0 8 0H24C28.4183 0 32 3.58172 32 8V24C32 28.4183 28.4183 32 24 32H8C3.58172 32 0 28.4183 0 24V8Z" fill="#D621F4"/>
<path d="M15.6581 7.94111C15.6586 8.9552 15.4593 9.95947 15.0715 10.8965C14.6837 11.8335 14.115 12.6849 13.3979 13.4019C12.6809 14.119 11.8295 14.6877 10.8925 15.0755C9.95546 15.4633 8.95119 15.6626 7.9371 15.6621C7.81492 15.6621 7.69419 15.6621 7.57496 15.6621C7.34532 15.6518 7.11862 15.6312 6.89339 15.6002C6.64761 15.5666 6.41141 15.4826 6.19954 15.3536C5.98766 15.2246 5.80466 15.0532 5.66196 14.8503C5.51926 14.6474 5.41993 14.4172 5.37017 14.1742C5.32041 13.9312 5.3213 13.6805 5.37276 13.4378C5.80293 11.4621 6.79255 9.65192 8.22348 8.22334C9.65441 6.79476 11.4662 5.80812 13.4426 5.38119C13.6824 5.33034 13.9301 5.32932 14.1703 5.37821C14.4105 5.42709 14.6381 5.52484 14.8389 5.66536C15.0398 5.80589 15.2096 5.9862 15.3379 6.1951C15.4661 6.40401 15.55 6.63706 15.5844 6.87976C15.6332 7.23144 15.6578 7.58606 15.6581 7.94111Z" fill="white"/>
<path d="M26.631 13.4467C26.6816 13.6863 26.6825 13.9339 26.6335 14.1739C26.5845 14.4139 26.4867 14.6414 26.3462 14.842C26.2057 15.0427 26.0255 15.2124 25.8167 15.3406C25.6079 15.4687 25.375 15.5526 25.1325 15.587C24.7783 15.6362 24.4212 15.6607 24.0637 15.6606C23.893 15.6606 23.7266 15.6606 23.5603 15.6459C21.7832 15.5297 20.101 14.8028 18.7985 13.5884C17.496 12.3739 16.6534 10.7465 16.4134 8.98188C16.366 8.63651 16.3424 8.28829 16.3428 7.93967C16.3427 7.58216 16.3672 7.22507 16.4164 6.87095C16.4508 6.62825 16.5347 6.39522 16.663 6.18631C16.7912 5.97741 16.961 5.7971 17.1619 5.65657C17.3627 5.51605 17.5903 5.4183 17.8305 5.36942C18.0707 5.32053 18.3184 5.32155 18.5582 5.3724C20.5374 5.8003 22.3513 6.7894 23.783 8.22134C25.2147 9.65328 26.2035 11.4674 26.631 13.4467Z" fill="white"/>
<path d="M15.6579 24.0617C15.6583 24.4014 15.6362 24.7407 15.5917 25.0775V25.0966C15.5604 25.3448 15.4776 25.5837 15.3486 25.798C15.2196 26.0123 15.0471 26.1973 14.8424 26.3411C14.6377 26.4848 14.4051 26.5842 14.1597 26.6327C13.9144 26.6813 13.6615 26.678 13.4174 26.6231C11.4461 26.1924 9.63993 25.2044 8.21398 23.7766C6.78804 22.3488 5.80231 20.5414 5.3741 18.5695C5.32309 18.327 5.32257 18.0766 5.37254 17.834C5.42251 17.5913 5.52192 17.3615 5.66458 17.1589C5.80724 16.9563 5.99008 16.7852 6.20172 16.6564C6.41337 16.5275 6.64926 16.4437 6.89474 16.41C7.11849 16.3805 7.34666 16.3599 7.5763 16.3481C7.69701 16.3481 7.81771 16.3481 7.9399 16.3481C9.98572 16.3493 11.9475 17.1622 13.3945 18.6084C14.8415 20.0546 15.6556 22.0159 15.6579 24.0617Z" fill="white"/>
<path d="M26.631 18.5563C26.205 20.5304 25.2205 22.3404 23.7947 23.7706C22.3688 25.2008 20.5619 26.191 18.5892 26.6232C18.3442 26.6778 18.0906 26.6807 17.8445 26.6316C17.5984 26.5826 17.3652 26.4826 17.16 26.3382C16.9547 26.1938 16.7819 26.0081 16.6526 25.793C16.5233 25.578 16.4403 25.3383 16.409 25.0893V25.0701C16.365 24.7358 16.3434 24.399 16.3443 24.0618C16.3443 22.1004 17.0907 20.2126 18.432 18.7816C19.7733 17.3507 21.609 16.4838 23.5662 16.357C23.7311 16.3452 23.8974 16.3408 24.0652 16.3408C24.4227 16.3407 24.7798 16.3653 25.1339 16.4144C25.3765 16.449 25.6094 16.5331 25.8181 16.6614C26.0269 16.7897 26.207 16.9596 26.3474 17.1604C26.4877 17.3612 26.5853 17.5888 26.6341 17.8289C26.6829 18.069 26.6819 18.3166 26.631 18.5563Z" fill="white"/>
</svg>
