<svg width="133" height="32" viewBox="0 0 133 32" fill="none" xmlns="http://www.w3.org/2000/svg">
<g clip-path="url(#clip0_1862_3861)">
<path d="M15.3837 3.91314C15.3845 5.43419 15.0875 6.9405 14.5096 8.34594C13.9317 9.75137 13.0842 11.0284 12.0157 12.1039C10.9471 13.1795 9.67835 14.0325 8.28202 14.6141C6.88568 15.1958 5.38913 15.4948 3.87793 15.4939C3.69585 15.4939 3.51596 15.4939 3.33827 15.4939C2.99606 15.4784 2.65823 15.4475 2.3226 15.4012C1.95634 15.3507 1.60436 15.2248 1.28862 15.0312C0.972879 14.8377 0.700171 14.5807 0.487524 14.2763C0.274877 13.972 0.126852 13.6267 0.0527011 13.2622C-0.0214498 12.8977 -0.0201336 12.5217 0.0565572 12.1577C0.697603 9.1943 2.17232 6.47921 4.30469 4.33646C6.43706 2.19372 9.13699 0.713847 12.0822 0.073493C12.4396 -0.00277477 12.8087 -0.00430435 13.1666 0.0690188C13.5246 0.142342 13.8637 0.288946 14.163 0.499722C14.4623 0.710499 14.7154 0.980949 14.9065 1.29429C15.0976 1.60762 15.2227 1.95718 15.274 2.32121C15.3467 2.84871 15.3834 3.38059 15.3837 3.91314Z" fill="#18A0ED"/>
<path d="M31.7358 12.1707C31.8113 12.5302 31.8125 12.9015 31.7395 13.2616C31.6665 13.6216 31.5208 13.9627 31.3114 14.2637C31.102 14.5647 30.8334 14.8192 30.5223 15.0114C30.2112 15.2036 29.8641 15.3294 29.5027 15.3811C28.975 15.4548 28.4428 15.4917 27.9101 15.4915C27.6556 15.4915 27.4077 15.4915 27.1598 15.4694C24.5117 15.2952 22.0048 14.2049 20.0638 12.3833C18.1229 10.5617 16.8672 8.12071 16.5096 5.47397C16.4389 4.95594 16.4037 4.43363 16.4043 3.91074C16.4041 3.37451 16.4408 2.8389 16.514 2.30776C16.5653 1.94373 16.6904 1.5942 16.8815 1.28086C17.0726 0.967521 17.3256 0.697071 17.6249 0.486295C17.9242 0.275518 18.2634 0.128914 18.6213 0.0555911C18.9793 -0.0177321 19.3484 -0.0162025 19.7058 0.0600652C22.6551 0.701876 25.3582 2.18543 27.4917 4.33322C29.6252 6.48101 31.0987 9.20205 31.7358 12.1707Z" fill="#18A0ED"/>
<path d="M15.3845 28.0922C15.385 28.6017 15.3521 29.1106 15.2858 29.6157V29.6444C15.2392 30.0167 15.1158 30.375 14.9235 30.6965C14.7312 31.0179 14.4743 31.2953 14.1692 31.5109C13.8641 31.7266 13.5176 31.8756 13.1519 31.9484C12.7862 32.0213 12.4094 32.0164 12.0457 31.9341C9.10799 31.288 6.41649 29.806 4.29154 27.6645C2.1666 25.5229 0.697669 22.812 0.0595557 19.8543C-0.0164577 19.4906 -0.017245 19.115 0.057226 18.751C0.131697 18.387 0.279838 18.0424 0.492424 17.7385C0.70501 17.4346 0.977486 17.1781 1.29288 16.9848C1.60827 16.7916 1.95979 16.6657 2.3256 16.6152C2.65904 16.571 2.99906 16.5401 3.34127 16.5225C3.52115 16.5225 3.70102 16.5225 3.8831 16.5225C6.93178 16.5242 9.85521 17.7435 12.0116 19.9127C14.1679 22.0819 15.381 25.0236 15.3845 28.0922Z" fill="#18A0ED"/>
<path d="M31.7356 19.8347C31.1008 22.7957 29.6336 25.5105 27.5088 27.6557C25.3841 29.801 22.6914 31.2862 19.7516 31.9343C19.3866 32.0163 19.0086 32.0206 18.6419 31.947C18.2751 31.8734 17.9277 31.7235 17.6219 31.5069C17.316 31.2903 17.0585 31.0118 16.8658 30.6892C16.6731 30.3666 16.5494 30.0071 16.5028 29.6336V29.6049C16.4373 29.1035 16.405 28.5982 16.4063 28.0925C16.4063 25.1506 17.5186 22.3191 19.5174 20.1727C21.5163 18.0264 24.2517 16.7261 27.1684 16.536C27.4141 16.5183 27.662 16.5117 27.912 16.5117C28.4448 16.5115 28.9769 16.5484 29.5046 16.6221C29.8661 16.674 30.2132 16.8001 30.5242 16.9926C30.8353 17.185 31.1037 17.4398 31.3129 17.741C31.5221 18.0422 31.6675 18.3835 31.7402 18.7437C31.8129 19.1038 31.8114 19.4752 31.7356 19.8347Z" fill="#18A0ED"/>
<path d="M55.3214 8.67934C54.4146 8.25136 53.4228 8.03692 52.4214 8.05228C51.6199 8.0475 50.8236 8.18197 50.0676 8.44973C49.3369 8.70905 48.6803 9.14412 48.1547 9.7171C47.8004 10.1049 47.5048 10.5431 47.2773 11.0176L47.1347 8.36804H44.25V23.6515H47.501V15.5218C47.501 14.3604 47.708 13.4331 48.1218 12.7398C48.4873 12.0943 49.0305 11.5691 49.6859 11.2273C50.2877 10.9176 50.9536 10.755 51.6295 10.7526C52.4891 10.7279 53.3238 11.0453 53.9526 11.6358C54.5712 12.2158 54.8798 13.2601 54.8783 14.7689V23.6626H58.1293V13.7378C58.1293 12.4528 57.8763 11.3929 57.3703 10.5583C56.8852 9.74332 56.1727 9.08989 55.3214 8.67934Z" fill="#2A2D2E"/>
<path d="M71.7965 8.96848C70.7626 8.35761 69.5078 8.05217 68.0322 8.05217C66.6865 8.02912 65.3576 8.35535 64.1735 8.99939C63.041 9.62984 62.1173 10.5811 61.517 11.7351C60.8794 12.9274 60.5605 14.3485 60.5605 15.9986C60.5605 17.6487 60.8794 19.0699 61.517 20.2622C62.1233 21.4222 63.0587 22.3745 64.2042 22.9978C65.44 23.6493 66.8196 23.9752 68.2142 23.9451C69.1618 23.9554 70.1048 23.8115 71.0068 23.519C71.812 23.2557 72.5575 22.8347 73.2004 22.2803C73.8118 21.7479 74.3121 21.0987 74.6724 20.3704L72.0927 19.1472C71.7512 19.8132 71.2363 20.3733 70.6032 20.7678C69.9758 21.1549 69.1561 21.3485 68.1441 21.3485C67.3133 21.3698 66.493 21.158 65.7749 20.7369C65.0889 20.3076 64.5488 19.6785 64.2262 18.933C63.9536 18.3132 63.7853 17.6521 63.7282 16.9768H74.8545C74.9004 16.6931 74.9312 16.4071 74.9466 16.1201C74.9664 15.7955 74.9773 15.4577 74.9773 15.0823C74.9982 13.8306 74.7167 12.5925 74.1569 11.4745C73.6243 10.4292 72.8051 9.55956 71.7965 8.96848ZM64.2042 13.0797C64.5013 12.3325 65.0218 11.6967 65.6937 11.2603C66.3795 10.8427 67.1694 10.6305 67.9708 10.6487C69.1641 10.6487 70.1052 11.0211 70.794 11.7659C71.3994 12.4195 71.7387 13.3211 71.8119 14.4707H63.8094C63.8854 13.9928 64.018 13.5259 64.2042 13.0797Z" fill="#2A2D2E"/>
<path d="M89.1492 8.99072C88.142 8.36362 86.9794 8.03529 85.7951 8.04349C84.7861 8.01009 83.7875 8.25698 82.9087 8.75706C82.03 9.25715 81.305 9.99114 80.8133 10.8785V1.48364H77.5645V23.645H80.4162L80.5851 20.7018C80.8003 21.1591 81.0699 21.5883 81.388 21.9801C81.8939 22.5998 82.533 23.0958 83.257 23.4308C84.0235 23.7833 84.8581 23.9605 85.7008 23.9497C86.9058 23.9633 88.0903 23.6351 89.1185 23.0024C90.1661 22.3437 91.0077 21.4008 91.5469 20.2822C92.1435 19.1047 92.4419 17.6886 92.4419 16.0341C92.4419 14.3428 92.1494 12.9062 91.5644 11.7242C91.0344 10.6001 90.1964 9.6518 89.1492 8.99072ZM88.0874 19.887C87.3475 20.8335 86.3237 21.3075 85.0163 21.3089C84.2376 21.3216 83.4731 21.0977 82.8227 20.6664C82.1669 20.2167 81.6555 19.5845 81.3507 18.8471C80.6551 17.0315 80.6606 15.0196 81.3661 13.2079C81.6768 12.4663 82.1865 11.8265 82.838 11.3599C83.4905 10.9114 84.266 10.6798 85.0558 10.6975C86.372 10.6975 87.3957 11.1663 88.1269 12.1039C88.8582 13.0416 89.2238 14.3355 89.2238 15.9856C89.2048 17.6518 88.826 18.9553 88.0874 19.8958V19.887Z" fill="#2A2D2E"/>
<path d="M105.54 16.6415C105.554 17.3473 105.446 18.0504 105.221 18.7192C105.036 19.2657 104.729 19.7625 104.324 20.172C103.958 20.5374 103.518 20.8191 103.034 20.9978C102.562 21.1692 102.064 21.2566 101.562 21.2561C100.509 21.2561 99.689 20.9963 99.1011 20.4767C98.5132 19.9571 98.2208 19.0047 98.2237 17.6196V8.35718H94.9727V18.4453C94.9727 19.748 95.2264 20.8071 95.7339 21.6226C96.2076 22.4085 96.9131 23.0259 97.752 23.389C98.6207 23.7612 99.5566 23.9484 100.501 23.9388C101.591 23.9688 102.672 23.742 103.66 23.2764C104.568 22.8115 105.31 22.0749 105.785 21.1678L105.937 23.6429H108.788V8.35939H105.54V16.6415Z" fill="#2A2D2E"/>
<path d="M114.432 1.48145H111.184V23.6428H114.432V1.48145Z" fill="#2A2D2E"/>
<path d="M131.11 21.4392C130.816 21.434 130.536 21.3124 130.331 21.1007C130.125 20.8891 130.011 20.6045 130.013 20.3087V13.4928C130.013 12.2489 129.745 11.2303 129.208 10.4369C128.666 9.63749 127.904 9.0156 127.014 8.64848C125.992 8.23352 124.898 8.03076 123.796 8.05234C122.015 8.05234 120.562 8.42916 119.437 9.18282C118.356 9.88171 117.555 10.943 117.176 12.179L119.909 13.3404C120.212 12.3821 120.687 11.6889 121.335 11.2605C122.035 10.8196 122.848 10.5969 123.673 10.6202C124.646 10.6202 125.411 10.8999 125.968 11.4592C126.525 12.0186 126.803 12.8083 126.802 13.8284V14.4135L121.396 15.4799C120.041 15.7449 118.993 16.2439 118.253 16.9769C117.886 17.3437 117.598 17.7829 117.407 18.267C117.216 18.751 117.127 19.2695 117.145 19.7899C117.106 20.5882 117.323 21.3781 117.762 22.0437C118.202 22.7092 118.842 23.2155 119.589 23.4882C120.408 23.8036 121.279 23.9587 122.155 23.9452C122.93 23.9453 123.7 23.8162 124.432 23.5633C125.164 23.3204 125.837 22.9247 126.407 22.4019C126.629 22.1993 126.825 21.9693 126.99 21.7174C127.093 22.1174 127.285 22.4888 127.551 22.8035C127.817 23.1182 128.15 23.3682 128.526 23.5346C129.079 23.7767 129.677 23.8964 130.281 23.8856C130.883 23.9055 131.483 23.7901 132.036 23.5478L132.218 21.2869C131.858 21.3928 131.485 21.4442 131.11 21.4392ZM126.475 19.5602C126.271 19.987 125.963 20.3548 125.58 20.6289C125.19 20.9069 124.751 21.1091 124.288 21.225C123.807 21.3485 123.312 21.4101 122.816 21.4083C122.191 21.4425 121.573 21.2653 121.061 20.9049C120.85 20.749 120.679 20.5437 120.565 20.3067C120.45 20.0698 120.394 19.8082 120.403 19.5448C120.388 19.2847 120.439 19.025 120.55 18.7899C120.662 18.5548 120.831 18.3519 121.041 18.2001C121.467 17.8932 122.103 17.6592 122.954 17.4958L126.78 16.7053V17.986C126.799 18.5273 126.694 19.0658 126.475 19.5602Z" fill="#2A2D2E"/>
</g>
<defs>
<clipPath id="clip0_1862_3861">
<rect width="132.197" height="32" fill="white"/>
</clipPath>
</defs>
</svg>
