<svg width="545" height="544" viewBox="0 0 545 544" fill="none" xmlns="http://www.w3.org/2000/svg">
<path d="M99.4581 486.101L5.00415 24.4578C2.41961 11.8259 12.0709 0 24.9645 0H519.626C532.653 0 542.333 12.056 539.519 24.7747L437.045 487.98C435.665 494.219 431.446 499.428 425.447 501.627C392.411 513.737 274.905 548.438 113.448 501.379C106.324 499.302 100.946 493.371 99.4581 486.101Z" fill="url(#paint0_linear_322_837)"/>
<rect x="130.5" y="115" width="272" height="272" rx="17.2999" fill="#2B86F1"/>
<rect x="130.5" y="115" width="272" height="272" rx="17.2999" fill="url(#paint1_linear_322_837)" fill-opacity="0.4" style="mix-blend-mode:multiply"/>
<path d="M229.068 214.92L132.77 298.107C131.011 299.627 130 301.836 130 304.161V376.5C130 380.918 133.582 384.5 138 384.5H394C398.418 384.5 402 380.918 402 376.5V285.398C402 283.226 401.117 281.148 399.555 279.641L350.107 231.928C347.193 229.116 342.638 228.925 339.498 231.483L284.894 275.975C281.037 279.118 275.277 278.016 272.854 273.671L241.284 217.077C238.815 212.65 232.904 211.607 229.068 214.92Z" fill="#2B86F1"/>
<path d="M229.068 214.92L132.77 298.107C131.011 299.627 130 301.836 130 304.161V376.5C130 380.918 133.582 384.5 138 384.5H394C398.418 384.5 402 380.918 402 376.5V285.398C402 283.226 401.117 281.148 399.555 279.641L350.107 231.928C347.193 229.116 342.638 228.925 339.498 231.483L284.894 275.975C281.037 279.118 275.277 278.016 272.854 273.671L241.284 217.077C238.815 212.65 232.904 211.607 229.068 214.92Z" fill="url(#paint2_linear_322_837)" fill-opacity="0.4" style="mix-blend-mode:multiply"/>
<circle cx="345.5" cy="166" r="20" fill="#2B86F1"/>
<path d="M424.5 367.817C424.5 367.748 424.487 367.683 424.478 367.614L424.47 367.558C424.465 367.497 424.457 367.437 424.444 367.372C424.422 367.251 424.392 367.135 424.358 367.018C424.345 366.966 424.332 366.915 424.314 366.867C424.263 366.716 424.202 366.569 424.138 366.436L424.064 366.293C424.038 366.237 424.008 366.181 423.978 366.125C423.909 365.995 423.84 365.866 423.775 365.736L423.745 365.676C423.529 365.257 423.305 364.826 423.024 364.364L420.224 359.745C416.156 353.029 411.95 346.089 407.79 339.269C406.828 337.694 405.866 336.071 404.934 334.5C402.794 330.9 400.586 327.175 398.157 323.584C398.135 323.55 398.109 323.519 398.083 323.485C398.031 323.416 397.975 323.347 397.911 323.269C397.85 323.2 397.794 323.131 397.729 323.07C397.665 323.006 397.6 322.945 397.518 322.876C397.445 322.811 397.371 322.751 397.289 322.691C397.212 322.634 397.134 322.587 397.056 322.535C396.97 322.483 396.888 322.432 396.797 322.388C396.724 322.35 396.651 322.319 396.547 322.276C396.461 322.242 396.375 322.207 396.284 322.177L396.155 322.134C396.09 322.117 396.03 322.104 395.999 322.099C395.896 322.073 395.788 322.052 395.684 322.039C395.594 322.026 395.503 322.017 395.417 322.009C395.318 322 395.214 322 395.106 322C395.016 322 394.925 322.009 394.826 322.017C394.731 322.026 394.636 322.039 394.55 322.056C394.45 322.073 394.351 322.095 394.282 322.112C394.226 322.121 394.17 322.134 394.118 322.151C394.062 322.168 394.01 322.186 393.959 322.211C393.872 322.242 393.786 322.276 393.7 322.315C393.613 322.354 393.532 322.393 393.45 322.436C393.363 322.483 393.281 322.531 393.204 322.583C393.122 322.634 393.04 322.691 392.962 322.751C392.889 322.807 392.815 322.868 392.746 322.928C392.673 322.997 392.6 323.066 392.535 323.135C392.47 323.204 392.41 323.273 392.349 323.347C392.285 323.429 392.224 323.511 392.181 323.575C392.142 323.623 392.108 323.675 392.073 323.726L366.049 366.267C365.95 366.423 365.864 366.591 365.786 366.781L365.751 366.863C365.691 367.01 365.648 367.156 365.605 367.32L365.592 367.368C365.51 367.73 365.48 368.106 365.514 368.473L366.593 368.408L365.518 368.52C365.518 368.576 365.527 368.633 365.536 368.693C365.695 369.811 366.386 370.804 367.378 371.347C367.568 371.451 367.762 371.555 367.952 371.654C368.28 371.827 368.59 371.991 368.884 372.168L374.73 375.599C378.759 377.964 382.784 380.33 386.823 382.691L393.221 386.42L393.303 386.467C393.359 386.497 393.419 386.528 393.48 386.554L393.527 386.575C393.579 386.601 393.635 386.627 393.691 386.653C393.773 386.687 393.855 386.713 393.976 386.752C394.028 386.769 394.084 386.791 394.14 386.804C394.235 386.83 394.33 386.847 394.45 386.869C394.498 386.877 394.55 386.89 394.601 386.895C394.757 386.916 394.916 386.925 395.067 386.925C395.218 386.925 395.378 386.916 395.538 386.895C395.589 386.886 395.646 386.877 395.702 386.864C395.805 386.847 395.904 386.83 396.004 386.8C396.06 386.782 396.116 386.765 396.211 386.735C396.293 386.709 396.375 386.683 396.461 386.644C396.517 386.623 396.569 386.597 396.621 386.567L396.672 386.541C396.737 386.51 396.806 386.48 396.841 386.454L422.74 371.101C422.766 371.084 422.796 371.067 422.822 371.05C422.908 370.994 422.994 370.933 423.094 370.86C423.124 370.834 423.154 370.812 423.184 370.786C423.275 370.709 423.365 370.631 423.439 370.553L423.62 370.355C423.702 370.26 423.78 370.165 423.849 370.066C423.883 370.018 423.909 369.971 423.956 369.897C424.012 369.807 424.064 369.716 424.116 369.617C424.151 369.552 424.176 369.487 424.202 369.422C424.241 369.327 424.28 369.233 424.31 369.138C424.336 369.064 424.353 368.995 424.375 368.926C424.401 368.827 424.422 368.728 424.44 368.624C424.453 368.555 424.461 368.486 424.47 368.412C424.483 368.313 424.487 368.214 424.491 368.089C424.491 368.037 424.491 367.981 424.491 367.92V367.804L424.5 367.817ZM411.652 359.892C411.302 359.732 410.953 359.577 410.621 359.43C410.474 359.361 410.327 359.297 410.189 359.232L410.133 359.206C410.056 359.167 409.978 359.133 409.909 359.102L398.696 354.052L398.748 338.216L398.778 338.268C399.705 339.826 400.659 341.436 401.625 343.02C405.133 348.774 408.692 354.639 411.958 360.03L411.652 359.892V359.892ZM406.992 365.71C407.027 365.728 407.066 365.745 407.104 365.762L407.234 365.818C407.346 365.866 407.458 365.918 407.579 365.974L407.683 366.021C408.006 366.168 408.334 366.31 408.649 366.453L410.543 367.303C410.668 367.359 410.798 367.42 410.953 367.489L411.164 367.584C411.358 367.67 411.553 367.761 411.79 367.869C412.226 368.063 412.653 368.257 413.08 368.447L398.696 376.976V361.973C398.769 362.007 398.842 362.042 398.92 362.076L407.001 365.715L406.992 365.71ZM391.456 361.99V377.032L390.481 376.462C386.672 374.235 382.866 371.999 379.057 369.763L378.371 369.362L377.003 368.559L391.456 361.99V361.99ZM391.517 338.51L391.465 354.057L378.354 360.017L391.517 338.51V338.51Z" fill="url(#paint3_linear_322_837)"/>
<path d="M421.311 377.563C420.276 377.144 419.085 377.235 418.123 377.8L395.093 391.37L371.683 377.584C370.574 376.933 369.189 376.92 368.072 377.55C366.95 378.18 366.243 379.371 366.234 380.658C366.213 382.63 367.144 383.804 367.541 384.309L371.519 389.894C376.325 396.658 381.3 403.65 386.248 410.491C386.77 411.212 387.297 411.98 387.802 412.719L387.828 412.757C389.23 414.803 390.679 416.918 392.509 418.852L392.573 418.921C392.599 418.947 392.625 418.968 392.651 418.994L393.384 418.2L392.698 419.037C392.737 419.076 392.78 419.115 392.824 419.15C392.858 419.18 392.897 419.206 392.931 419.236L393.579 418.373L392.966 419.262C393.013 419.301 393.065 419.335 393.121 419.378C393.16 419.404 393.195 419.426 393.264 419.469C393.324 419.504 393.38 419.542 393.428 419.564C393.471 419.586 393.514 419.607 393.557 419.629L394.014 418.653L393.609 419.655C393.665 419.681 393.717 419.706 393.777 419.728C393.816 419.745 393.859 419.758 393.928 419.784C393.993 419.806 394.062 419.832 394.122 419.849C394.17 419.862 394.217 419.875 394.282 419.892C394.342 419.905 394.403 419.922 394.467 419.935C394.493 419.94 394.519 419.948 394.567 419.953L394.661 419.965C394.834 419.991 394.994 420 395.145 420C395.317 420 395.498 419.987 395.684 419.957L395.762 419.944C395.93 419.914 396.102 419.871 396.258 419.819L396.366 419.784C396.404 419.771 396.448 419.758 396.482 419.741C396.551 419.715 396.616 419.681 396.681 419.65L396.737 419.624C396.797 419.599 396.853 419.568 396.914 419.534C397.026 419.469 397.134 419.4 397.211 419.344C397.254 419.318 397.298 419.288 397.341 419.258C397.548 419.115 398.031 418.774 398.454 418.187C405.042 408.976 413.718 396.839 422.403 384.659L422.437 384.616C422.86 384.093 424.141 382.501 423.438 379.95C423.141 378.875 422.342 377.981 421.307 377.567L421.311 377.563ZM408.321 391.957C404.977 396.636 401.741 401.168 398.734 405.372L398.713 397.616L408.316 391.957H408.321ZM390.973 397.931C390.964 400.171 390.96 402.433 390.96 404.677C387.879 400.409 384.812 396.114 381.848 391.949L390.96 397.314C390.96 397.443 390.96 397.56 390.964 397.672C390.964 397.758 390.964 397.845 390.964 397.931H390.973Z" fill="url(#paint4_linear_322_837)"/>
<ellipse cx="269.896" cy="510.619" rx="222.896" ry="33.2497" fill="url(#paint5_linear_322_837)"/>
<defs>
<linearGradient id="paint0_linear_322_837" x1="271.863" y1="78.3119" x2="271.863" y2="588.931" gradientUnits="userSpaceOnUse">
<stop offset="0.245442" stop-color="#0958F2" stop-opacity="0"/>
<stop offset="1" stop-color="#1965F7" stop-opacity="0.53"/>
</linearGradient>
<linearGradient id="paint1_linear_322_837" x1="266.5" y1="115" x2="266.5" y2="387" gradientUnits="userSpaceOnUse">
<stop stop-color="#123EDA"/>
<stop offset="1" stop-color="white" stop-opacity="0.3"/>
</linearGradient>
<linearGradient id="paint2_linear_322_837" x1="266" y1="208.5" x2="266" y2="384.5" gradientUnits="userSpaceOnUse">
<stop stop-color="#123EDA"/>
<stop offset="1" stop-color="white" stop-opacity="0.3"/>
</linearGradient>
<linearGradient id="paint3_linear_322_837" x1="395" y1="322" x2="395" y2="386.925" gradientUnits="userSpaceOnUse">
<stop stop-color="#469AD7"/>
<stop offset="1" stop-color="#3C9FFA" stop-opacity="0.76"/>
</linearGradient>
<linearGradient id="paint4_linear_322_837" x1="394.939" y1="377.086" x2="394.939" y2="420" gradientUnits="userSpaceOnUse">
<stop stop-color="#469AD7"/>
<stop offset="1" stop-color="#3C9FFA" stop-opacity="0.76"/>
</linearGradient>
<linearGradient id="paint5_linear_322_837" x1="269.375" y1="487.283" x2="269.375" y2="551.919" gradientUnits="userSpaceOnUse">
<stop stop-color="#0958F2" stop-opacity="0"/>
<stop offset="1" stop-color="#1965F7" stop-opacity="0.67"/>
</linearGradient>
</defs>
</svg>
