<svg width="32" height="32" viewBox="0 0 32 32" fill="none" xmlns="http://www.w3.org/2000/svg">
<path d="M0 8C0 3.58172 3.58172 0 8 0H24C28.4183 0 32 3.58172 32 8V24C32 28.4183 28.4183 32 24 32H8C3.58172 32 0 28.4183 0 24V8Z" fill="url(#paint0_linear_1425_3148)"/>
<g clip-path="url(#clip0_1425_3148)">
<path d="M25.8638 10.466H25.8626C25.8357 10.439 25.8066 10.4155 25.7763 10.393C25.7729 10.3908 25.7695 10.3874 25.7662 10.3852C25.7336 10.3616 25.7 10.3403 25.6641 10.3212L16.4933 5.43915C16.2297 5.29893 15.9134 5.29893 15.6498 5.43915L6.47564 10.3224C6.46218 10.3302 6.44984 10.3392 6.43638 10.347L6.43414 10.3493C6.40161 10.3695 6.37132 10.3897 6.34103 10.4132C6.33878 10.4144 6.33766 10.4166 6.33542 10.4177C6.30737 10.4402 6.28157 10.4637 6.25689 10.4884C6.25353 10.4929 6.24904 10.4962 6.24567 10.5007C6.22324 10.5243 6.20305 10.5478 6.18285 10.5736C6.17724 10.5815 6.17164 10.5894 6.16603 10.5972C6.15032 10.6208 6.13349 10.6432 6.12003 10.6679C6.1133 10.6802 6.10769 10.6937 6.10096 10.706C6.08974 10.7273 6.07853 10.7486 6.06955 10.7711C6.06282 10.789 6.05721 10.807 6.05048 10.8249C6.04375 10.844 6.03702 10.862 6.03141 10.881C6.02468 10.9046 6.02131 10.9281 6.01683 10.9528C6.01458 10.9674 6.0101 10.982 6.00785 10.9966C6.00224 11.0358 6 11.0762 6 11.1166V20.8864C6 21.2184 6.18285 21.5224 6.47564 21.6784L15.6475 26.5616C15.6677 26.5717 15.6879 26.5807 15.7092 26.5896C15.7148 26.5919 15.7193 26.5941 15.7249 26.5964C15.7563 26.6098 15.7889 26.621 15.8214 26.63C15.827 26.6311 15.8326 26.6334 15.8382 26.6356C15.8719 26.6446 15.9066 26.6513 15.9414 26.6569C15.9459 26.6569 15.9493 26.6592 15.9538 26.6592C15.9919 26.6637 16.0312 26.667 16.0693 26.667H16.0715C16.1097 26.667 16.149 26.6637 16.1871 26.6592C16.1916 26.6592 16.1949 26.6581 16.1994 26.6569C16.2342 26.6525 16.269 26.6446 16.3026 26.6356C16.3082 26.6345 16.3139 26.6323 16.3195 26.63C16.352 26.621 16.3845 26.6098 16.4159 26.5964C16.4216 26.5941 16.4272 26.5919 16.4328 26.5885C16.453 26.5795 16.4743 26.5717 16.4933 26.5605L25.6675 21.675C25.9602 21.5191 26.1431 21.214 26.1431 20.883V11.1144C26.1431 10.8586 26.0354 10.6286 25.8638 10.466ZM16.0704 14.9835L11.8749 12.7499L15.9796 10.5647L20.174 12.7982L16.0704 14.9835ZM10.7609 14.3003L11.5765 14.7344L15.0821 16.6V21.0805L10.7609 18.7796V14.2992V14.3003ZM16.969 16.5506L17.2775 16.3868L21.1993 14.298V18.7796L16.969 21.0311V16.5506ZM16.0715 7.24862L23.3341 11.1155L22.0833 11.7818L16.4014 8.75745C16.1377 8.61722 15.8214 8.61722 15.5578 8.75745L9.96445 11.7347L8.80451 11.1166L16.0715 7.2475V7.24862ZM7.79489 20.3479V12.6108L8.96605 13.2346V19.3192C8.96605 19.6513 9.1489 19.9553 9.44169 20.1112L15.1719 23.1625V24.2754L7.79489 20.3479ZM24.3482 20.3457L16.969 24.2754V23.0649L22.5163 20.1101C22.8091 19.9542 22.992 19.6502 22.992 19.3181L22.9942 13.3288L24.3482 12.6075V20.3446V20.3457Z" fill="url(#paint1_linear_1425_3148)"/>
</g>
<defs>
<linearGradient id="paint0_linear_1425_3148" x1="16" y1="0" x2="16" y2="32" gradientUnits="userSpaceOnUse">
<stop stop-color="#202D4F"/>
<stop offset="1" stop-color="#0E286B" stop-opacity="0.31"/>
</linearGradient>
<linearGradient id="paint1_linear_1425_3148" x1="16.0715" y1="5.33398" x2="16.0715" y2="26.667" gradientUnits="userSpaceOnUse">
<stop stop-color="#4677D7"/>
<stop offset="1" stop-color="#0034B9" stop-opacity="0.62"/>
</linearGradient>
<clipPath id="clip0_1425_3148">
<rect width="20.1431" height="21.3333" fill="white" transform="translate(6 5.3335)"/>
</clipPath>
</defs>
</svg>
