<svg width="199" height="31" viewBox="0 0 199 31" fill="none" xmlns="http://www.w3.org/2000/svg">
<path d="M6.55174 15.853V9.49423H9.91175C12.3685 9.49423 13.4163 10.7226 13.4163 12.6736C13.4163 14.6246 12.3685 15.853 9.91175 15.853H6.55174ZM19.7028 12.6736C19.7028 8.01293 16.5957 4.5084 10.3814 4.5084H0.373646V29.8711H6.55174V20.7665H10.3814C16.8486 20.7665 19.7028 16.8646 19.7028 12.6736ZM29.0972 20.5136C29.0972 17.0452 30.7953 16.0336 33.7217 16.0336H35.4198V9.49423C32.7101 9.49423 30.5062 10.9394 29.0972 13.071V9.71101H22.9191V29.8711H29.0972V20.5136ZM58.0993 19.791C58.0993 13.3962 53.5471 9.42197 47.6219 9.42197C41.7328 9.42197 37.1444 13.3962 37.1444 19.791C37.1444 26.1859 41.6244 30.1601 47.5496 30.1601C53.4748 30.1601 58.0993 26.1859 58.0993 19.791ZM43.4309 19.791C43.4309 16.3588 45.3819 14.7691 47.6219 14.7691C49.7896 14.7691 51.8129 16.3588 51.8129 19.791C51.8129 23.1872 49.7535 24.813 47.5496 24.813C45.3096 24.813 43.4309 23.1872 43.4309 19.791ZM60.1485 19.7549C60.1485 26.1137 64.0866 30.1601 69.0363 30.1601C71.9989 30.1601 74.1305 28.8233 75.2505 26.9808V29.8711H81.4286V3.13549H75.2505V12.493C74.0222 10.6504 71.7099 9.42197 69.0363 9.42197C64.0866 9.42197 60.1485 13.3962 60.1485 19.7549ZM75.2505 19.791C75.2505 23.0065 73.1912 24.7769 70.8428 24.7769C68.5305 24.7769 66.435 22.9704 66.435 19.7549C66.435 16.5394 68.5305 14.8052 70.8428 14.8052C73.1912 14.8052 75.2505 16.5756 75.2505 19.791ZM85.8982 29.8711H92.0763V14.6246L97.7847 29.8711H102.771L108.443 14.6607V29.8711H114.621V4.5084H107.359L100.314 22.0672L93.1963 4.5084H85.8982V29.8711ZM117.835 19.7549C117.835 26.1137 121.773 30.1601 126.687 30.1601C129.686 30.1601 131.817 28.7872 132.937 27.0169V29.8711H139.115V9.71101H132.937V12.5652C131.853 10.7949 129.722 9.42197 126.723 9.42197C121.773 9.42197 117.835 13.3962 117.835 19.7549ZM132.937 19.791C132.937 23.0065 130.878 24.7769 128.53 24.7769C126.217 24.7769 124.122 22.9704 124.122 19.7549C124.122 16.5394 126.217 14.8052 128.53 14.8052C130.878 14.8052 132.937 16.5756 132.937 19.791ZM157.495 29.8711H163.637V18.093C163.637 12.6736 160.53 9.49423 155.869 9.49423C153.159 9.49423 150.991 10.6865 149.763 12.3846V9.71101H143.585V29.8711H149.763V18.9239C149.763 16.1781 151.28 14.6607 153.629 14.6607C155.977 14.6607 157.495 16.1781 157.495 18.9239V29.8711ZM167.93 29.8711H174.108V9.71101H167.93V29.8711ZM171.037 7.61551C173.205 7.61551 174.686 6.13422 174.686 4.29163C174.686 2.41291 173.205 0.931612 171.037 0.931612C168.833 0.931612 167.352 2.41291 167.352 4.29163C167.352 6.13422 168.833 7.61551 171.037 7.61551ZM177.357 19.7549C177.357 26.1137 181.295 30.1601 186.208 30.1601C189.207 30.1601 191.339 28.7872 192.459 27.0169V29.8711H198.637V9.71101H192.459V12.5652C191.375 10.7949 189.243 9.42197 186.244 9.42197C181.295 9.42197 177.357 13.3962 177.357 19.7549ZM192.459 19.791C192.459 23.0065 190.399 24.7769 188.051 24.7769C185.739 24.7769 183.643 22.9704 183.643 19.7549C183.643 16.5394 185.739 14.8052 188.051 14.8052C190.399 14.8052 192.459 16.5756 192.459 19.791Z" fill="#5C6786"/>
</svg>
