<svg width="32" height="32" viewBox="0 0 32 32" fill="none" xmlns="http://www.w3.org/2000/svg">
<path d="M0 8C0 3.58172 3.58172 0 8 0H24C28.4183 0 32 3.58172 32 8V24C32 28.4183 28.4183 32 24 32H8C3.58172 32 0 28.4183 0 24V8Z" fill="url(#paint0_linear_1425_3133)"/>
<path d="M11.9892 20.2777L5.3335 16.6378V15.2828L11.9892 11.642L12.7305 12.997L7.31351 15.9603L12.7305 18.9237L11.9892 20.2787V20.2777ZM26.6668 16.6368V15.2818L20.0112 11.642L19.2698 12.997L24.6868 15.9603L19.2698 18.9237L20.0112 20.2787L26.6668 16.6378V16.6368ZM17.4813 9.3335L12.886 22.5861H14.52L19.1154 9.3335H17.4813Z" fill="url(#paint1_linear_1425_3133)"/>
<defs>
<linearGradient id="paint0_linear_1425_3133" x1="16" y1="0" x2="16" y2="32" gradientUnits="userSpaceOnUse">
<stop stop-color="#202D4F"/>
<stop offset="1" stop-color="#0E286B" stop-opacity="0.31"/>
</linearGradient>
<linearGradient id="paint1_linear_1425_3133" x1="16.0002" y1="9.3335" x2="16.0002" y2="22.5861" gradientUnits="userSpaceOnUse">
<stop stop-color="#4677D7"/>
<stop offset="1" stop-color="#0034B9" stop-opacity="0.62"/>
</linearGradient>
</defs>
</svg>
