<svg width="32" height="32" viewBox="0 0 32 32" fill="none" xmlns="http://www.w3.org/2000/svg">
<path d="M0 8C0 3.58172 3.58172 0 8 0H24C28.4183 0 32 3.58172 32 8V24C32 28.4183 28.4183 32 24 32H8C3.58172 32 0 28.4183 0 24V8Z" fill="#FCFCFC"/>
<path d="M26.9957 15.3732C26.9957 15.0454 26.9468 14.7135 26.9019 14.3982C26.8369 13.9143 26.7375 13.4358 26.6043 12.9667C26.0143 10.8407 24.8051 8.94661 23.136 7.53406C21.467 6.1215 19.4165 5.25681 17.2549 5.05397C16.9204 5.01716 16.5842 4.99916 16.2478 5.00003C15.8568 4.99904 15.466 5.02121 15.0776 5.06642C12.6158 5.33881 10.3221 6.46855 8.58491 8.26438C6.8477 10.0602 5.77369 12.4118 5.5447 14.921C5.4917 15.2654 5.4917 15.6014 5.4917 15.9458C5.49199 16.3159 5.51104 16.6857 5.54878 17.0537V17.0537C5.74178 19.0253 6.46243 20.9054 7.63231 22.4892C7.74907 22.66 7.87569 22.8234 8.01151 22.9789C8.10121 23.0867 8.19091 23.1988 8.28877 23.3025C8.38662 23.4062 8.52118 23.5598 8.6435 23.6842L9.01454 24.0494C9.2674 24.2866 9.53283 24.5096 9.80962 24.7174C9.94825 24.8211 10.0869 24.9207 10.2174 25.0203C10.3478 25.1199 10.5028 25.2153 10.6536 25.3108C10.9431 25.485 11.2489 25.6552 11.5547 25.8087H11.5751L12.044 26.0244C12.6923 26.3037 13.3654 26.5191 14.0542 26.6676H14.0908C14.2539 26.7008 14.4252 26.734 14.5924 26.7589C14.7595 26.7838 14.9512 26.8086 15.1347 26.8252C15.3181 26.8418 15.4975 26.8584 15.6769 26.8667C15.8563 26.875 16.0154 26.8667 16.1866 26.8667H16.2315C16.3864 26.8667 16.5454 26.8667 16.7004 26.8667C16.8553 26.8667 16.9491 26.8667 17.0755 26.8667H17.157L17.6015 26.8128C18.8142 26.6645 19.9916 26.2993 21.0794 25.734L21.4872 25.5182C21.7441 25.373 21.9887 25.2195 22.2293 25.0577C22.4087 24.9373 22.5799 24.8128 22.7471 24.6842C22.9999 24.4851 23.2486 24.2693 23.4769 24.066C24.7662 22.8773 25.7526 21.388 26.3515 19.7258C26.4086 19.564 26.4656 19.4022 26.5186 19.2321C26.5186 19.2321 26.5186 19.2072 26.5186 19.1947C26.5676 19.0398 26.6124 18.8821 26.6532 18.7217C26.6817 18.5889 26.7144 18.4644 26.747 18.3358C26.7796 18.2072 26.7796 18.174 26.7959 18.091C26.8285 17.9167 26.8571 17.7425 26.8856 17.5682C26.9141 17.3939 26.9264 17.2487 26.9386 17.0786C26.9508 16.9085 26.9712 16.7135 26.9835 16.5267C26.9957 16.34 26.9835 16.1574 26.9835 15.9666V15.9458C26.9998 15.7522 27.0038 15.5613 26.9957 15.3732ZM21.1406 15.9915C21.1406 16.6637 21.1406 17.3234 21.1406 17.9873C21.1566 18.2394 21.1008 18.4909 20.9801 18.7116C20.8593 18.9324 20.6787 19.113 20.4597 19.2321L16.9165 21.3067C16.7162 21.4349 16.4844 21.5029 16.2478 21.5029C16.0112 21.5029 15.7794 21.4349 15.5791 21.3067C14.413 20.6221 13.255 19.9333 12.0848 19.2321C11.8571 19.1111 11.668 18.9266 11.5395 18.7003C11.411 18.4741 11.3484 18.2152 11.359 17.9541C11.359 16.6305 11.359 15.2944 11.359 13.9708C11.3481 13.6985 11.4151 13.4289 11.5519 13.1946C11.6887 12.9604 11.8894 12.7716 12.1296 12.6513C13.2631 11.9985 14.3926 11.3346 15.5179 10.6597C15.7308 10.5146 15.9804 10.4354 16.2366 10.4317C16.4928 10.428 16.7445 10.5 16.9613 10.6389C18.103 11.3194 19.2446 11.9999 20.4026 12.6679C20.6408 12.7891 20.8382 12.9796 20.9697 13.2153C21.1011 13.4511 21.1606 13.7213 21.1406 13.9915C21.1243 14.6679 21.1406 15.3276 21.1406 15.9915Z" fill="#0A0E14"/>
</svg>
