<svg width="338" height="85" viewBox="0 0 338 85" fill="none" xmlns="http://www.w3.org/2000/svg">
<g clip-path="url(#clip0_1159_2532)">
<path d="M122.544 45.1686H133.399C134.925 45.1686 136.162 46.4185 136.162 47.9447C136.162 49.4841 134.925 50.7209 133.399 50.7209H120.308C120.097 50.7209 119.9 50.7998 119.755 50.9314L115.808 54.3391C115.203 54.8654 115.571 55.8521 116.36 55.8521H132.741C132.741 55.8521 132.754 55.8521 132.754 55.839C132.754 55.8258 132.767 55.8258 132.767 55.8258C132.978 55.839 133.175 55.8521 133.386 55.8521C137.728 55.8521 141.254 52.3129 141.254 47.9447C141.254 43.8002 138.083 40.3926 134.03 40.0636C134.03 40.0636 134.017 40.0636 134.017 40.0505C134.017 40.0373 134.017 40.0373 134.004 40.0373H122.321C120.794 40.0373 119.558 38.7874 119.558 37.2612C119.558 35.7218 120.794 34.485 122.321 34.485H135.386C135.596 34.485 135.807 34.4061 135.964 34.2614L139.635 30.8537C140.214 30.3142 139.833 29.3538 139.056 29.3538H122.544C122.478 29.3538 122.4 29.3538 122.334 29.3538C117.992 29.3538 114.466 32.893 114.466 37.2612C114.466 41.6293 117.992 45.1686 122.334 45.1686C122.4 45.1686 122.465 45.1686 122.544 45.1686Z" fill="#5C6786"/>
<path d="M185.724 29.3393C185.251 29.3393 184.869 29.7209 184.869 30.2077V54.9956C184.869 55.4693 185.251 55.864 185.724 55.864H205.591C205.828 55.864 206.052 55.7587 206.223 55.5877L208.71 52.9168C209.223 52.3642 208.841 51.4564 208.078 51.4564H190.737C190.263 51.4564 189.882 51.0748 189.882 50.588V30.1945C189.882 29.7209 189.5 29.3262 189.027 29.3262H185.724V29.3393Z" fill="#5C6786"/>
<path fill-rule="evenodd" clip-rule="evenodd" d="M153.917 29.3401C153.917 29.3532 153.917 29.3532 153.917 29.3401C151.377 29.4585 149.338 31.4978 149.22 34.0372V50.7072C149.22 50.773 149.22 50.8519 149.22 50.9177C149.22 53.5623 151.299 55.72 153.917 55.8253H171.942C174.547 55.7069 176.639 53.5491 176.639 50.9177C176.639 50.8519 176.639 50.773 176.639 50.7072V34.0503C176.534 31.511 174.494 29.4585 171.955 29.3532H153.917V29.3401ZM157.285 34.0503C157.272 34.0503 157.272 34.0503 157.285 34.0503C155.693 34.1161 154.417 35.4055 154.351 37.0107V47.4969C154.351 47.5363 154.351 47.589 154.351 47.6284C154.351 49.2862 155.654 50.6546 157.285 50.7203H168.587C170.218 50.6546 171.521 49.2862 171.521 47.6284C171.521 47.589 171.521 47.5363 171.521 47.4969V37.0107C171.455 35.4055 170.179 34.1293 168.587 34.0503H157.285Z" fill="#5C6786"/>
<path fill-rule="evenodd" clip-rule="evenodd" d="M237.591 54.9974C237.591 55.4711 237.973 55.8658 238.446 55.8658H241.814C242.288 55.8658 242.67 55.4843 242.67 54.9974V34.4855C242.67 34.4198 242.67 34.3408 242.67 34.275C242.67 31.6305 240.604 29.4727 238.025 29.3674H220.724C220.658 29.3674 220.579 29.3674 220.513 29.3674C217.829 29.3674 215.658 31.5647 215.658 34.2882C215.658 34.354 215.658 34.4329 215.658 34.4987V55.0106C215.658 55.4843 216.04 55.879 216.513 55.879H219.882C220.355 55.879 220.737 55.4974 220.737 55.0106V46.4716C220.737 45.998 221.118 45.6033 221.592 45.6033H236.775C237.249 45.6033 237.631 45.9848 237.631 46.4716V54.9974H237.591ZM220.711 40.8799V36.617C220.711 34.9592 222.039 33.6172 223.671 33.6172H234.644C236.275 33.6172 237.604 34.9592 237.604 36.617V40.8799C237.604 41.3535 237.223 41.7483 236.749 41.7483H221.566C221.092 41.7483 220.711 41.3667 220.711 40.8799Z" fill="#5C6786"/>
<path fill-rule="evenodd" clip-rule="evenodd" d="M308.701 55.8653C308.227 55.8653 307.845 55.4837 307.845 54.9969V46.458C307.845 45.9843 307.464 45.5896 306.99 45.5896H291.636C291.162 45.5896 290.781 45.9712 290.781 46.458V54.9969C290.781 55.4706 290.399 55.8653 289.926 55.8653H286.531C286.057 55.8653 285.676 55.4837 285.676 54.9969V34.485C285.676 34.4192 285.676 34.3403 285.676 34.2745C285.676 31.5642 287.873 29.3538 290.583 29.3538C290.649 29.3538 290.728 29.3538 290.794 29.3538H308.28C310.885 29.4722 312.977 31.6299 312.977 34.2614C312.977 34.3271 312.977 34.4061 312.977 34.4719V54.9838C312.977 55.4574 312.595 55.8521 312.122 55.8521H308.701V55.8653ZM290.781 36.6165V40.8794C290.781 41.353 291.162 41.7477 291.636 41.7477H306.99C307.464 41.7477 307.845 41.3662 307.845 40.8794V36.6165C307.845 34.9587 306.503 33.6167 304.859 33.6167H293.767C292.11 33.6167 290.781 34.9587 290.781 36.6165Z" fill="#5C6786"/>
<path d="M255.356 29.3401C255.606 29.3401 255.843 29.4453 256.001 29.6427L271.105 47.6547C271.618 48.26 272.605 47.8916 272.605 47.089V30.2085C272.605 29.7348 272.987 29.3401 273.46 29.3401H276.829C277.302 29.3401 277.684 29.7216 277.684 30.2085V54.9964C277.684 55.47 277.302 55.8648 276.829 55.8648H272.645C272.631 55.8648 272.618 55.8516 272.618 55.8384C272.618 55.8253 272.618 55.8253 272.605 55.8121L257.238 37.9317C256.725 37.3264 255.738 37.708 255.738 38.4974V55.0095C255.738 55.4832 255.356 55.8779 254.883 55.8779H251.488C251.014 55.8779 250.633 55.4964 250.633 55.0095V30.2085C250.633 29.7348 251.014 29.3401 251.488 29.3401H255.356Z" fill="#5C6786"/>
<path d="M36.1393 56.7658C36.5604 56.3447 37.1261 56.1079 37.7182 56.1079H92.5173C93.5173 56.1079 94.0172 57.3184 93.3068 58.0157L82.4785 68.844C82.0575 69.265 81.4917 69.5018 80.8997 69.5018H26.1005C25.1006 69.5018 24.6006 68.2914 25.3111 67.594L36.1393 56.7658Z" fill="#5C6786"/>
<path d="M36.1393 16.3522C36.5604 15.9312 37.1261 15.6943 37.7182 15.6943H92.5173C93.5173 15.6943 94.0172 16.9048 93.3068 17.6021L82.4785 28.4173C82.0575 28.8383 81.4917 29.0751 80.8997 29.0751H26.1005C25.1006 29.0751 24.6006 27.8647 25.3111 27.1673L36.1393 16.3522Z" fill="#5C6786"/>
<path d="M82.4785 36.4281C82.0575 36.0071 81.4917 35.7703 80.8997 35.7703H26.1005C25.1006 35.7703 24.6006 36.9807 25.3111 37.678L36.1393 48.4932C36.5604 48.9142 37.1261 49.151 37.7182 49.151H92.5173C93.5173 49.151 94.0172 47.9406 93.3068 47.2432L82.4785 36.4281Z" fill="#5C6786"/>
</g>
<defs>
<clipPath id="clip0_1159_2532">
<rect width="337.874" height="84.6" fill="white" transform="translate(0.0380859 0.300049)"/>
</clipPath>
</defs>
</svg>
