<svg width="88" height="88" viewBox="0 0 88 88" fill="none" xmlns="http://www.w3.org/2000/svg">
<g clip-path="url(#clip0_1227_4304)">
<path d="M72.916 19.8241L30.9296 8.57386C25.7493 7.1858 20.4246 10.26 19.0365 15.4404L7.7863 57.4267C6.39819 62.6072 9.47246 67.9318 14.6528 69.3198L56.6392 80.5701C61.8195 81.9581 67.1442 78.884 68.5323 73.7036L79.7825 31.7172C81.1706 26.5369 78.0963 21.2121 72.916 19.8241Z" fill="#22293A"/>
<path d="M20.1126 46.7272C22.1741 47.9619 24.4887 48.7129 26.8825 48.9238C28.8384 49.0132 29.7284 48.5486 29.7776 47.472C29.8268 46.3951 29.1587 45.8918 26.4913 44.7475C20.9421 42.3722 19.4313 39.0863 19.6082 36.1887C19.8531 30.8291 24.3626 27.0384 31.1703 27.3454C33.7231 27.4267 36.2313 28.0367 38.5364 29.137L36.7049 35.7012C35.0589 34.7893 33.2386 34.2364 31.3637 34.0789C29.6699 34.0015 28.72 34.5361 28.6715 35.5967C28.6295 36.5162 29.4106 37.1096 32.3623 38.4003C37.3585 40.5885 38.9982 43.5289 38.8333 47.1342C38.5883 52.4978 34.3496 56.0181 26.6186 55.6687C23.239 55.5144 20.039 54.6164 18.1963 53.4652L20.1126 46.7272Z" fill="#5C6786"/>
<path d="M43.5314 37.6308C43.6878 34.207 43.7111 31.1325 43.7197 28.4658L51.975 28.8431L52.2694 32.2189L52.3782 32.2238C54.2177 29.8225 56.9938 28.5026 60.454 28.6567C66.3945 28.9282 70.6796 34.8222 70.2982 43.1661C69.8455 53.0708 63.8314 57.4193 58.242 57.1639C55.4593 57.0366 53.3772 55.7291 52.4873 54.3304L52.3743 54.3254L51.7832 67.2627L42.2173 66.8255L43.5314 37.6308ZM52.788 44.924C52.7475 45.5558 52.8002 46.1899 52.9443 46.8064C53.0906 47.5415 53.4734 48.2088 54.0345 48.7059C54.5956 49.2029 55.304 49.5026 56.0515 49.5591C58.7697 49.6833 60.4297 46.9625 60.6043 43.0546C60.7975 38.8281 59.452 36.257 56.7619 36.1381C55.9629 36.1226 55.1821 36.3779 54.5464 36.8624C53.911 37.3469 53.4581 38.0324 53.2615 38.8071C53.0838 39.2788 52.9885 39.7774 52.98 40.2814L52.788 44.924Z" fill="#5C6786"/>
</g>
<defs>
<clipPath id="clip0_1227_4304">
<rect width="70.7574" height="70.7574" fill="white" transform="translate(19.1201 0.54126) rotate(15)"/>
</clipPath>
</defs>
</svg>
