<svg width="62" height="30" viewBox="0 0 62 30" fill="none" xmlns="http://www.w3.org/2000/svg">
<path d="M13.8123 7.62713V28.8711H6.73095V7.62713H0.914148V1.62969H19.6291V7.62713H13.8123ZM37.7716 8.60262C37.0008 7.97638 36.2301 7.51874 35.4593 7.22971C34.6885 6.91659 33.9419 6.76003 33.2193 6.76003C32.304 6.76003 31.5573 6.9768 30.9793 7.41035C30.4012 7.8439 30.1122 8.40993 30.1122 9.10843C30.1122 9.59015 30.2567 9.98757 30.5457 10.3007C30.8348 10.6138 31.2081 10.8908 31.6657 11.1317C32.1475 11.3484 32.6774 11.5411 33.2554 11.7097C33.8576 11.8783 34.4477 12.059 35.0257 12.2517C37.338 13.0224 39.024 14.0581 40.0838 15.3588C41.1677 16.6353 41.7096 18.3093 41.7096 20.3807C41.7096 21.7777 41.4688 23.0423 40.9871 24.1743C40.5294 25.3063 39.843 26.2818 38.9277 27.1008C38.0365 27.8956 36.9286 28.5098 35.6038 28.9434C34.3032 29.401 32.8219 29.6298 31.1599 29.6298C27.7156 29.6298 24.5242 28.6061 21.5857 26.5588L24.6205 20.8504C25.6803 21.7898 26.7281 22.4883 27.7638 22.9459C28.7995 23.4035 29.8231 23.6324 30.8348 23.6324C31.9909 23.6324 32.846 23.3674 33.3999 22.8375C33.978 22.3076 34.267 21.7055 34.267 21.0311C34.267 20.6216 34.1948 20.2723 34.0503 19.9833C33.9057 19.6702 33.6649 19.3932 33.3277 19.1523C32.9905 18.8874 32.5449 18.6465 31.9909 18.4298C31.461 18.213 30.8107 17.9721 30.0399 17.7072C29.1246 17.4181 28.2214 17.105 27.3302 16.7678C26.4631 16.4065 25.6803 15.9368 24.9818 15.3588C24.3074 14.7807 23.7534 14.0581 23.3199 13.191C22.9104 12.2998 22.7057 11.1798 22.7057 9.83101C22.7057 8.48219 22.9225 7.26584 23.356 6.18196C23.8137 5.074 24.4399 4.13464 25.2347 3.36389C26.0537 2.56904 27.0412 1.95485 28.1973 1.5213C29.3776 1.08775 30.6902 0.870971 32.1354 0.870971C33.4842 0.870971 34.8933 1.06366 36.3625 1.44904C37.8318 1.81033 39.2408 2.35227 40.5896 3.07485L37.7716 8.60262ZM61.6705 7.62713H53.2524V12.1794H61.2008V18.1769H53.2524V22.8736H61.6705V28.8711H46.171V1.62969H61.6705V7.62713Z" fill="#5C6786"/>
</svg>
