<svg width="26" height="27" viewBox="0 0 26 27" fill="none" xmlns="http://www.w3.org/2000/svg">
<path d="M22.3178 5.73381C21.4882 6.31902 20.5696 6.76661 19.5974 7.05935C19.0757 6.4594 18.3822 6.03417 17.6109 5.84117C16.8396 5.64818 16.0276 5.69673 15.2847 5.98025C14.5419 6.26377 13.9041 6.7686 13.4575 7.42644C13.0109 8.08428 12.7772 8.86341 12.7878 9.65844V10.5248C11.2653 10.5643 9.75664 10.2266 8.39622 9.54186C7.0358 8.85712 5.86584 7.84655 4.99054 6.60017C4.99054 6.60017 1.52509 14.3974 9.32236 17.8629C7.53811 19.074 5.41259 19.6813 3.25781 19.5956C11.0551 23.9274 20.5851 19.5956 20.5851 9.63245C20.5843 9.39112 20.5611 9.1504 20.5158 8.91336C21.4 8.04136 22.024 6.94041 22.3178 5.73381Z" fill="#1DA1F2"/>
</svg>
